<svg width="194" height="56" viewBox="0 0 194 56" fill="none" xmlns="http://www.w3.org/2000/svg">
<path d="M115.568 7.54913H114.982V48.1735H115.568V7.54913Z" fill="white"/>
<path d="M73.313 30.8163C73.5792 31.2423 74.0052 31.4552 74.5909 31.4552C75.3363 31.5085 75.8687 30.7098 75.8687 30.7098L88.4873 14.4707C89.5521 13.4059 90.5638 14.2577 90.5638 14.2577C91.5754 15.3226 90.83 16.2277 90.83 16.2277L88.0081 19.8483V19.9015C87.7419 20.1677 87.6354 20.4872 87.6354 20.8599C87.6354 21.1793 87.7419 21.4988 87.9549 21.765L90.7767 25.3855L99.7216 13.9915L96.1543 9.41264L95.5154 8.56075C94.9297 7.70886 93.6519 7.54913 93.6519 7.54913H88.2743C86.8368 7.54913 86.0913 8.56075 86.0913 8.56075L71.0236 27.888L73.313 30.8163Z" fill="white"/>
<path d="M72.6741 20.9131L69.1069 16.281C68.3615 15.1096 69.4263 14.2578 69.4263 14.2578C70.7574 13.4591 71.556 14.6837 71.556 14.6837L74.5376 18.5172L78.0517 13.9383L74.0052 8.72049C73.0468 7.33617 71.556 7.54914 71.556 7.54914H66.7109C65.1669 7.54914 64.4747 8.50752 64.4747 8.50752L60.162 13.9383L69.1069 25.4388L72.6741 20.9131Z" fill="white"/>
<path d="M86.5705 24.8531C86.5705 24.8531 86.1446 24.2142 85.346 24.2142C84.4941 24.2142 84.1746 24.7998 84.1746 24.7998L71.3963 41.2519C70.3847 42.37 69.2133 41.4649 69.2133 41.4649C68.2017 40.4 69.0536 39.4417 69.0536 39.4417L71.9287 35.7679V35.7147C72.1949 35.4484 72.3014 35.129 72.3014 34.7563C72.3014 34.4368 72.1949 34.1174 71.982 33.8512L69.1601 30.2306L60.162 41.7844L65.1669 48.1203L73.0468 48.1735L88.9132 27.8879L86.5705 24.8531Z" fill="white"/>
<path d="M87.2095 34.7031L90.83 39.3884C91.6819 40.5598 90.617 41.4117 90.617 41.4117C89.2327 42.37 88.3808 40.9325 88.3808 40.9325L85.346 37.0457L81.8319 41.6246L86.9432 48.1203L94.77 48.067L99.7748 41.6246L90.7767 30.1774L87.2095 34.7031Z" fill="white"/>
<path d="M99.6683 29.8047C98.6035 29.8047 97.7516 28.9528 97.7516 27.8879C97.7516 26.8231 98.6035 25.9712 99.6683 25.9712C100.733 25.9712 101.585 26.8231 101.585 27.8879C101.585 28.9528 100.733 29.8047 99.6683 29.8047ZM99.6683 24.2674C97.6451 24.2674 96.0478 25.8647 96.0478 27.8347C96.0478 29.8047 97.6451 31.402 99.6683 31.402C101.692 31.402 103.289 29.8047 103.289 27.8347C103.289 25.8647 101.692 24.2674 99.6683 24.2674Z" fill="white"/>
<path d="M79.9152 2.01186C80.98 2.01186 81.8319 2.86375 81.8319 3.92861C81.8319 4.99347 80.98 5.84536 79.9152 5.84536C78.8503 5.84536 77.9984 4.99347 77.9984 3.92861C77.9984 2.86375 78.9036 2.01186 79.9152 2.01186ZM79.9152 7.54913C81.9384 7.54913 83.5357 5.95184 83.5357 3.98185C83.5357 2.01186 81.9384 0.361328 79.9152 0.361328C77.892 0.361328 76.2947 1.95862 76.2947 3.92861C76.2947 5.8986 77.892 7.54913 79.9152 7.54913Z" fill="white"/>
<path d="M58.192 27.8347C58.192 26.7698 59.0439 25.918 60.1088 25.918C61.1736 25.918 62.0255 26.7698 62.0255 27.8347C62.0255 28.8996 61.1736 29.7515 60.1088 29.7515C59.0439 29.7515 58.192 28.8996 58.192 27.8347ZM63.7826 27.8347C63.7826 25.8647 62.1853 24.2674 60.162 24.2674C58.1388 24.2674 56.5415 25.8647 56.5415 27.8347C56.5415 29.8047 58.1388 31.402 60.162 31.402C62.132 31.4552 63.7826 29.8047 63.7826 27.8347Z" fill="white"/>
<path d="M79.9152 53.7108C78.8503 53.7108 77.9984 52.8589 77.9984 51.794C77.9984 50.7292 78.8503 49.8773 79.9152 49.8773C80.98 49.8773 81.8319 50.7292 81.8319 51.794C81.8319 52.8057 80.98 53.7108 79.9152 53.7108ZM79.9152 48.1735C77.892 48.1735 76.2947 49.7708 76.2947 51.7408C76.2947 53.7108 77.892 55.3081 79.9152 55.3081C81.9384 55.3081 83.5357 53.7108 83.5357 51.7408C83.5357 49.7708 81.9384 48.1735 79.9152 48.1735Z" fill="white"/>
<path d="M41.9529 3.92859H0.103943V31.8279C0.103943 47.1619 20.9752 51.7408 20.9752 51.7408H21.0284C21.0284 51.7408 41.8997 47.1087 41.8997 31.8279L41.9529 3.92859ZM40.8881 4.94021V31.8279C40.8881 35.0757 39.8764 38.1106 37.8532 40.7727C36.2027 42.9557 33.9132 44.9257 30.9849 46.6295C26.5657 49.2384 22.04 50.463 20.9752 50.6759C19.9636 50.4097 15.4912 49.2384 11.0188 46.6295C8.09039 44.9257 5.80094 42.9557 4.15041 40.7727C2.12718 38.1106 1.11556 35.0757 1.11556 31.8279V4.94021H40.8881Z" fill="white"/>
<path d="M26.0865 12.8734V10.3177H23.4776V12.7137H22.466V10.3177H19.7506V12.7137H18.739V10.3177H16.0768V12.8734L17.4079 15.1096C17.4612 15.2161 17.4612 15.2693 17.4612 15.3758V27.0893H18.739V22.8831C18.739 21.8715 19.8571 20.9663 21.0817 20.9663C22.3595 20.9663 23.4244 21.8715 23.4244 22.8831V27.0893H24.7554V22.6701C24.7554 22.6169 24.7554 22.6169 24.7554 22.6169V20.4339V20.3807V18.7834V18.0912V15.4291C24.7554 15.3226 24.8087 15.2693 24.8619 15.1629L26.0865 12.8734Z" fill="white"/>
<path d="M16.3431 27.3555V23.4688L15.9171 23.7882C15.7574 23.8947 15.5444 23.8947 15.3847 23.735L14.799 23.3623C14.799 23.4155 14.799 23.4155 14.799 23.4155L14.7458 24.9063C14.7458 25.0661 14.6393 25.2258 14.5328 25.2791C14.586 25.3323 14.6393 25.3323 14.6925 25.3855C15.3847 25.918 15.4379 26.7166 15.2782 27.3555H16.3431Z" fill="white"/>
<path d="M20.9752 22.0312C20.1765 22.0312 19.6441 22.6169 19.6441 22.8831V27.0893H22.3063V22.8831C22.3595 22.5636 21.7738 22.0312 20.9752 22.0312Z" fill="white"/>
<path d="M5.32175 27.3555C5.16202 27.0361 5.05553 26.6634 5.00229 26.1842C4.84256 25.3323 4.89581 24.6401 4.89581 24.5869C4.89581 24.3739 5.05553 24.2142 5.26851 24.1077L6.38661 23.7882L5.10878 22.8831C4.94905 22.7766 4.89581 22.6169 4.89581 22.4572V21.0196C4.89581 20.8066 5.00229 20.6469 5.16202 20.5404L5.64121 20.2742V19.795L5.26851 19.6353C5.05553 19.582 4.89581 19.4223 4.89581 19.1561V17.4523C4.89581 17.1861 5.10878 16.9199 5.42824 16.9199L7.02553 16.8666C6.97228 16.4407 6.97228 15.855 7.07877 15.3758C7.2385 14.7369 7.6112 14.0448 7.77093 13.7253L7.66444 13.1396C7.6112 12.9799 7.71768 12.8734 7.77093 12.7669C7.87741 12.6604 7.9839 12.6072 8.14363 12.6072H8.99552C9.102 12.6072 9.20849 12.6604 9.26173 12.7137L11.3382 14.0448H12.3498C12.5096 14.0448 12.616 14.098 12.7225 14.2045C12.829 14.311 12.8823 14.4175 12.8823 14.5772L12.7758 16.2277C12.7758 16.3875 12.7225 16.4939 12.616 16.6004H13.255C13.4147 16.6004 13.5212 16.6537 13.6277 16.7602L13.8939 17.0796L14.1068 16.9199L14.4795 16.1745C14.586 16.0148 14.7458 15.9083 14.9587 15.9083H16.343V15.6421L15.012 13.3526C14.9587 13.2461 14.9587 13.1929 14.9587 13.0864V9.78533C14.9587 9.51911 15.1717 9.2529 15.4912 9.2529H18.6857H19.6974H22.4127H23.4776H26.6189C26.8852 9.2529 27.1514 9.46587 27.1514 9.78533V12.9799C27.1514 13.0864 27.0981 13.1396 27.0449 13.2461L25.7138 15.4823V15.8018H27.0981C27.3111 15.8018 27.4708 15.9083 27.5773 16.068L27.95 16.8134L28.163 16.9731L28.4292 16.6537C28.5357 16.5472 28.6422 16.4939 28.8019 16.4939H29.4408C29.3343 16.3875 29.2811 16.281 29.2811 16.1212L29.1746 14.4707C29.1746 14.311 29.2278 14.2045 29.3343 14.098C29.4408 13.9915 29.5473 13.9383 29.707 13.9383H30.6654L32.7419 12.6072C32.8484 12.554 32.9016 12.5007 33.0081 12.5007H33.86C34.0197 12.5007 34.1262 12.554 34.2327 12.6604C34.3392 12.7669 34.3924 12.9267 34.3392 13.0332L34.2327 13.6188C34.3924 13.9383 34.7651 14.6304 34.9248 15.2694C35.0313 15.7485 35.0313 16.3342 34.9781 16.7602L36.5754 16.8134C36.8416 16.8134 37.1078 17.0264 37.1078 17.3458V19.0496C37.1078 19.2626 37.0013 19.4223 36.7883 19.5288L36.3092 19.6885V20.1677L36.7883 20.4339C36.9481 20.5404 37.0546 20.7001 37.0546 20.9131V22.3507C37.0546 22.5104 36.9481 22.6701 36.8416 22.7766L35.5638 23.6817L36.6819 24.0012C36.8948 24.0544 37.0013 24.2674 37.0546 24.4804C37.0546 24.5336 37.1078 25.2258 36.9481 26.0777C36.8416 26.5569 36.7883 26.9296 36.6286 27.249H38.4921H38.5454V7.49588H3.405V27.3555H5.32175Z" fill="white"/>
<path d="M27.3111 25.3855C27.3644 25.3323 27.4176 25.3323 27.4708 25.2791C27.3644 25.1726 27.2579 25.0661 27.2579 24.9063V23.4155C27.2579 23.3623 27.2579 23.3623 27.2579 23.3623L26.7254 23.7882C26.5657 23.8947 26.3527 23.8947 26.1398 23.8415L25.7138 23.5753V27.462H26.7254C26.619 26.7166 26.619 25.9712 27.3111 25.3855Z" fill="white"/>
<path d="M34.1794 38.0041C33.9132 38.0041 33.647 37.7912 33.647 37.4717V34.1174C33.647 33.8512 33.4873 33.5317 33.2743 33.3188C33.0613 33.1058 32.7419 32.8928 32.2095 32.946C31.4108 32.946 30.9316 33.585 30.8784 34.1706V37.5249C30.8784 37.6847 30.8251 37.7912 30.7187 37.8976C30.6122 38.0041 30.5057 38.0574 30.346 38.0574H27.3111C27.0449 38.0574 26.7787 37.8444 26.7787 37.5249V34.1706C26.7787 33.9044 26.6189 33.585 26.406 33.372C26.193 33.159 25.8735 32.946 25.3411 32.9993C25.0217 32.9993 24.7022 33.159 24.436 33.3188L26.9384 46.1503C30.4524 44.6063 34.6586 41.9974 36.9481 38.0574L34.1794 38.0041Z" fill="white"/>
<path d="M25.98 46.4165L22.466 28.4204H19.6441L16.0768 46.4165C16.0768 46.4697 16.0768 46.4697 16.0236 46.523C18.4728 47.5346 20.4427 48.0138 21.0284 48.2268C21.6141 48.067 23.5841 47.5346 26.0333 46.523C26.0333 46.4697 26.0333 46.4697 25.98 46.4165Z" fill="white"/>
<path d="M17.5676 33.2655C17.3547 33.0525 17.0352 32.946 16.6625 32.946H16.6093C16.0768 32.946 15.7574 33.159 15.5976 33.372C15.3847 33.5849 15.2249 33.9044 15.2249 34.1706V37.5249C15.2249 37.7911 15.012 38.0573 14.6925 38.0573H11.6577C11.4979 38.0573 11.3915 38.0041 11.285 37.8976C11.1785 37.7911 11.1252 37.6846 11.1252 37.5249V34.1706C11.072 33.5849 10.5928 32.946 9.79417 32.946H9.74092C9.20849 32.946 8.88903 33.159 8.72931 33.372C8.51633 33.5849 8.3566 33.9044 8.3566 34.1706V37.5249C8.3566 37.7911 8.14363 38.0573 7.82417 38.0573H5.16203C7.39823 41.9973 11.5512 44.553 15.1185 46.1503L17.5676 33.2655Z" fill="white"/>
<path d="M38.5986 28.4204H23.5309L24.2763 32.2006C24.5957 32.0409 24.9684 31.9344 25.3411 31.9344C26.0333 31.9344 26.6722 32.1474 27.1514 32.6266C27.5773 33.0525 27.8435 33.6382 27.8435 34.1174V36.9392H29.8668V34.1174C29.8668 34.0641 29.8668 34.0641 29.8668 34.0641C29.9733 32.8395 30.9849 31.8812 32.2095 31.8812C32.9016 31.8812 33.5405 32.0941 34.0197 32.5733C34.4457 32.9993 34.7119 33.5849 34.7119 34.0641V36.886H37.5338C38.2259 35.342 38.6519 33.6382 38.6519 31.6682L38.5986 28.4204Z" fill="white"/>
<path d="M7.39824 36.9925V34.1706C7.39824 33.6382 7.66445 33.1058 8.09039 32.6798C8.56958 32.2006 9.2085 31.9876 9.90066 31.9876C11.1252 32.0409 12.1369 32.946 12.2433 34.1706C12.2433 34.2239 12.2433 34.2239 12.2433 34.2239V37.0457H14.2666V34.2239C14.2666 33.6914 14.5328 33.159 14.9587 32.733C15.4379 32.2539 16.0768 32.0409 16.769 32.0409C17.1417 32.0409 17.5144 32.1474 17.8339 32.3071L18.5793 28.5269H3.45826V31.7747C3.45826 33.7447 3.8842 35.5017 4.57636 36.9925H7.39824Z" fill="white"/>
<path d="M8.62283 26.2907H9.47471C9.52796 26.3972 9.5812 26.5036 9.5812 26.6101C9.5812 26.6634 9.5812 26.7699 9.5812 26.8231C9.5812 26.9828 9.52796 27.1958 9.52796 27.3555H6.59959C6.17365 27.0893 5.96068 25.918 5.96068 25.0128L7.23851 24.6401C7.45148 24.5869 7.61121 24.3739 7.61121 24.1609V23.6818C7.61121 23.522 7.50472 23.3623 7.39824 23.2558L5.90743 22.191V21.3391L6.38662 21.0729C6.54635 20.9664 6.65284 20.8066 6.65284 20.5937V19.4756C6.65284 19.2626 6.54635 19.1029 6.33338 18.9964L5.85419 18.8366V17.9848H7.18527L7.82418 19.0496V20.4872L7.39824 21.8715C7.34499 22.0312 7.34499 22.191 7.50472 22.3507C7.61121 22.5104 7.77094 22.5637 7.93067 22.5637H8.30337C8.56958 22.5637 8.78255 22.4039 8.8358 22.1377C8.88904 21.9247 8.99553 21.2326 9.10201 20.9664C9.2085 20.7534 9.5812 20.2742 9.79417 19.9547C9.9539 19.7418 9.9539 19.4756 9.79417 19.3158L8.0904 17.2926C8.03715 16.9731 7.98391 16.281 8.0904 15.7486C8.19688 15.1629 8.62283 14.4707 8.72931 14.2578C8.78256 14.1513 8.8358 14.0448 8.78255 13.9383L8.72931 13.7786H8.8358L10.9123 15.1096C11.0188 15.1629 11.072 15.2161 11.1785 15.2161H11.8174L11.7642 15.8018L11.072 16.068C10.9123 16.1745 10.7525 16.3342 10.7525 16.5472V17.0796C10.7525 17.3458 10.9655 17.6121 11.285 17.6121H13.042L13.5212 18.0912C13.6809 18.3042 14.0004 18.3042 14.2133 18.1445C14.2133 18.1445 15.012 17.5056 15.0652 17.4523L15.3314 16.8667H16.3963V18.038V18.6769C16.3963 18.6769 14.5328 19.3158 14.3731 19.3691C14.2666 19.4223 14.1601 20.008 14.2133 20.1145C14.2666 20.2742 14.2133 20.3275 14.4263 20.4339C14.4263 20.4339 14.9587 20.8599 15.1185 20.9131L15.6509 20.3807L16.3431 20.4872V22.2442L15.6509 22.7234L13.4679 21.2326C13.255 21.0729 12.9355 21.1261 12.7758 21.3391L12.4563 21.765C12.2966 21.978 12.2966 22.2974 12.5096 22.4572L13.7342 23.6285V24.5869L12.4563 25.1193C12.2433 25.2258 12.1369 25.3855 12.1369 25.5985V25.8115C12.1369 26.0777 12.3498 26.3439 12.6693 26.3439H14.1601C14.4263 26.6634 14.3198 27.0893 14.2133 27.4088H10.8058C10.6993 27.3023 10.6461 27.0893 10.5928 26.8231C10.5928 26.7699 10.5928 26.6634 10.5928 26.6101C10.5928 26.2907 10.6461 25.9712 10.6993 25.7582L11.4979 24.7466C11.5512 24.6401 11.6044 24.5336 11.6044 24.4804L11.6577 24.0012C11.6577 23.8415 11.5512 23.6818 11.4447 23.522C11.3382 23.3623 11.1252 23.4155 10.9655 23.4688L9.68769 24.0012C9.52796 24.0545 9.42147 24.2142 9.36823 24.3739L9.26174 24.9063L8.51634 25.1193C8.30337 25.1726 8.14364 25.3855 8.14364 25.5985V25.8115C8.0904 26.0777 8.35661 26.2907 8.62283 26.2907Z" fill="white"/>
<path d="M33.4341 26.2907H32.5822C32.5289 26.3972 32.4757 26.5036 32.4757 26.6101C32.4757 26.6634 32.4757 26.7699 32.4757 26.8231C32.4757 26.9828 32.5289 27.1958 32.5289 27.3555H35.4573C35.8832 27.0893 36.0962 25.918 36.0962 25.0128L34.8184 24.6401C34.6054 24.5869 34.4457 24.3739 34.4457 24.161V23.6818C34.4457 23.522 34.5522 23.3623 34.6586 23.2558L36.0962 22.2442V21.3923L35.617 21.1261C35.4573 21.0196 35.3508 20.8599 35.3508 20.6469V19.5288C35.3508 19.3158 35.4573 19.1561 35.6703 19.0496L36.1495 18.8899V18.038H34.8184L34.1795 19.1029V20.5404L34.6054 21.9248C34.6587 22.0845 34.6586 22.2442 34.4989 22.4039C34.3924 22.5637 34.2327 22.6169 34.073 22.6169H33.7003C33.4341 22.6169 33.2211 22.4572 33.1678 22.191C33.1146 21.978 33.0081 21.2858 32.9016 21.0196C32.7951 20.8066 32.4224 20.3275 32.2095 20.008C32.0497 19.795 32.0497 19.5288 32.2095 19.3691L33.9665 17.3459C34.0197 17.0264 34.073 16.3342 33.9665 15.8018C33.86 15.2161 33.4341 14.524 33.3276 14.311C33.2743 14.2045 33.2211 14.098 33.2743 13.9915L33.3276 13.8318H33.2211L31.1446 15.1629C31.0381 15.2161 30.9849 15.2694 30.8784 15.2694H30.2927L30.346 16.0148L31.0381 16.281C31.2511 16.3875 31.3576 16.5472 31.3576 16.7602V17.2926C31.3576 17.5588 31.1446 17.825 30.8252 17.825H29.0681L28.589 18.3042C28.4292 18.5172 28.1098 18.5172 27.8968 18.3575C27.8968 18.3575 27.0981 17.7186 27.0449 17.6653L26.7787 17.0796H25.7138V18.251V18.8899C25.7138 18.8899 27.5773 19.5288 27.7371 19.5821C27.8435 19.6353 27.95 20.221 27.8968 20.3275C27.8435 20.4872 27.8968 20.5404 27.6838 20.6469C27.6838 20.6469 27.1514 21.0729 26.9917 21.1261L26.4592 20.5937H25.7138V22.3507L26.406 22.7766L28.589 21.2858C28.8019 21.1261 29.1214 21.1793 29.2811 21.3923L29.6006 21.8183C29.7603 22.0312 29.7603 22.3507 29.5473 22.5104L28.3227 23.6285V24.5869L29.6006 25.1193C29.8135 25.2258 29.92 25.3855 29.92 25.5985V25.8115C29.92 26.0777 29.7071 26.3439 29.3876 26.3439H27.8968C27.6306 26.6634 27.7371 27.0893 27.8435 27.4088H31.3043C31.4108 27.3023 31.4641 27.0893 31.5173 26.8231C31.5173 26.7699 31.5173 26.6634 31.5173 26.6101C31.5173 26.2907 31.4641 25.9712 31.4108 25.7582L30.6122 24.7466C30.5589 24.6401 30.5057 24.5337 30.5057 24.4804L30.4525 23.948C30.4525 23.7883 30.5589 23.6285 30.6654 23.4688C30.8252 23.3623 30.9849 23.3623 31.1446 23.4156L32.4224 23.948C32.5822 24.0012 32.6887 24.161 32.7419 24.3207L32.8484 24.8531L33.5938 25.0661C33.8068 25.1193 33.9665 25.3323 33.9665 25.5453V25.7582C33.9665 26.0777 33.7535 26.2907 33.4341 26.2907Z" fill="white"/>
<path d="M194 22.3559C193.852 17.185 189.457 13.0114 184.175 13.0114H175.828C174.794 13.0114 173.944 13.8609 173.944 14.8951V23.3531C173.944 23.39 173.981 23.427 173.981 23.5008C174.462 25.5323 174.609 27.6006 174.462 29.7059C174.425 30.2968 174.351 30.8508 174.277 31.4049C174.203 31.922 174.092 32.439 173.981 32.9561V43.7411C173.981 43.7411 176.751 44.8122 177.342 43.3348V32.2913C179.411 32.2913 184.249 32.2913 184.36 32.2913C189.679 32.2913 194 27.9699 194 22.6144C194 22.5405 194 22.4297 194 22.3559ZM188.866 27.0096C187.684 28.2285 186.059 28.9302 184.36 28.9302C184.249 28.9302 179.411 28.9302 177.342 28.9302V16.3724H184.175C187.647 16.3724 190.528 19.1056 190.602 22.4667C190.713 24.1287 190.048 25.7908 188.866 27.0096Z" fill="white"/>
<path d="M172.098 21.6172C171.95 21.2847 171.765 20.9893 171.581 20.6938C171.433 20.4352 171.248 20.1398 171.064 19.8812C170.879 19.6227 170.731 19.4011 170.546 19.1795L170.446 19.0263C170.187 18.6939 169.992 18.5516 169.697 18.2192C169.438 17.9237 169.804 18.2868 169.509 17.9913V22.8632C170.506 24.6361 170.399 26.1971 170.399 28.2285C170.399 34.6182 165.339 39.8629 158.949 40.3431L159.023 40.4908L159.983 42.4483L160.426 43.3348L160.5 43.4825C162.051 43.224 163.603 42.7438 165.006 42.042C165.154 41.9682 165.265 41.8943 165.413 41.8574C165.745 41.6727 166.077 41.488 166.373 41.3034L166.447 41.2664C168.257 40.1214 169.808 38.6071 171.027 36.8712C171.211 36.6126 171.396 36.3541 171.544 36.0586C171.728 35.7632 171.913 35.4307 172.061 35.0983C172.947 33.3993 173.464 31.5157 173.612 29.5951C173.871 26.8619 173.353 24.0918 172.098 21.6172Z" fill="white"/>
<path d="M159.318 43.4825L157.841 40.4908L157.804 40.4169L157.582 39.9737L157.324 39.4197L152.375 29.1519V35.4308L154 38.681L154.332 39.3458L154.48 39.6782C154.48 39.7152 154.517 39.7521 154.517 39.7891L154.628 40.0107L154.812 40.38L156.364 43.5564V43.5933C156.364 43.5933 156.363 43.6303 156.4 43.6303C156.511 43.6303 156.622 43.6672 156.696 43.6672H159.244C159.281 43.6672 159.318 43.6672 159.318 43.6303V43.4825Z" fill="white"/>
<path d="M146.317 16.4463L145.431 14.6365L144.581 12.9006C144.581 12.8636 144.544 12.8636 144.544 12.8267C144.507 12.7898 144.507 12.7898 144.471 12.7898H144.434H144.397C144.36 12.7898 144.323 12.8267 144.323 12.8267C144.323 12.8267 144.286 12.8636 144.286 12.9006L129.29 43.4456C129.253 43.4825 129.253 43.5194 129.29 43.5933C129.327 43.6303 129.364 43.6672 129.401 43.6672H131.58C131.987 43.6672 132.356 43.4456 132.504 43.0762L134.129 39.7152C134.129 39.7152 134.129 39.6782 134.166 39.6782L142.698 22.282C142.845 21.8757 143.03 21.4694 143.215 21.0631C143.252 21.0262 143.252 20.9523 143.289 20.9154C143.362 20.7307 143.473 20.5461 143.547 20.3983C143.584 20.3244 143.621 20.2875 143.621 20.2136C143.621 20.1767 143.658 20.1767 143.658 20.1398C143.732 19.992 143.806 19.8443 143.917 19.6966C143.953 19.6596 143.953 19.5858 143.99 19.5488C144.101 19.3641 144.175 19.2164 144.286 19.0687L147.684 25.8647V19.2164L146.317 16.4463Z" fill="white"/>
<path d="M165.634 42.5791L165.634 43.5933C165.634 43.6303 165.671 43.6672 165.708 43.6672H168.33C168.626 43.6672 168.847 43.4456 168.847 43.1501V40.4738C167.887 41.3233 166.816 42.0251 165.634 42.5791Z" fill="white"/>
<path d="M168.663 12.9006H165.819C165.708 12.9006 165.634 12.9744 165.634 13.0852V36.7235C165.856 36.5388 166.077 36.3172 166.299 36.1325C167.407 35.0614 168.293 33.7318 168.847 32.2913V13.0852C168.884 12.9744 168.774 12.9006 168.663 12.9006Z" fill="white"/>
<path d="M157.619 12.9006H148.866C148.681 12.9006 148.496 13.0483 148.496 13.233V42.8177C148.496 43.224 148.829 43.5195 149.198 43.5195H150.639H155.219L153.667 40.38H151.71V16.077C151.71 16.077 157.656 16.04 157.952 16.04C160.722 16.04 162.817 16.7619 164.996 18.4609V14.7778C162.559 13.3743 160.426 12.9006 157.619 12.9006Z" fill="white"/>
</svg>
