<svg width="330" height="56" viewBox="0 0 330 56" fill="none" xmlns="http://www.w3.org/2000/svg">
<path d="M231.159 7.26245H230.539V47.8261H231.159V7.26245Z" fill="#8B1232"/>
<path d="M73.1562 30.5555C73.4219 30.9984 73.8647 31.1755 74.3961 31.1755C75.1932 31.1755 75.6361 30.467 75.6361 30.467L88.3897 14.2592C89.4525 13.1964 90.4267 14.0821 90.4267 14.0821C91.401 15.1449 90.6924 16.1191 90.6924 16.1191L87.8583 19.7504C87.5926 20.0161 87.504 20.3703 87.504 20.7246C87.504 21.0789 87.5926 21.3446 87.8583 21.6103L90.6924 25.2415L99.6377 13.8164L96.095 9.21092L95.475 8.32525C94.8551 7.52815 93.6151 7.26245 93.6151 7.26245H88.2126C86.7955 7.26245 85.9984 8.23669 85.9984 8.23669L70.8535 27.5443L73.1562 30.5555Z" fill="#8B1232"/>
<path d="M72.5362 20.6361L68.9935 16.0306C68.285 14.8792 69.3478 13.9936 69.3478 13.9936C70.6763 13.1965 71.4734 14.4364 71.4734 14.4364L74.4847 18.2448L78.0273 13.7279L73.9533 8.50243C72.979 7.08536 71.4734 7.35106 71.4734 7.35106H66.6022C65.008 7.35106 64.388 8.3253 64.388 8.3253L60.1368 13.7279L69.0821 25.153L72.5362 20.6361Z" fill="#8B1232"/>
<path d="M86.4412 24.5331C86.4412 24.5331 85.9984 23.9131 85.2013 23.9131C84.4042 23.9131 84.0499 24.4445 84.0499 24.4445L71.2963 40.9179C70.2335 42.0693 69.1707 41.1836 69.1707 41.1836C68.1964 40.1208 68.9935 39.1466 68.9935 39.1466L71.8277 35.4268C72.0934 35.1611 72.1819 34.8068 72.1819 34.4525C72.1819 34.0983 72.0934 33.8326 71.8277 33.5669L68.9935 29.9356L59.9597 41.4493L65.008 47.8261H72.8905L88.7439 27.5443L86.4412 24.5331Z" fill="#8B1232"/>
<path d="M87.0612 34.4525L90.6924 39.1466C91.4895 40.2979 90.5153 41.1836 90.5153 41.1836C89.0982 42.1578 88.3011 40.7408 88.3011 40.7408L85.2899 36.8438L81.7472 41.3607L86.7955 47.8261H94.5894L99.6377 41.3607L90.6039 29.847L87.0612 34.4525Z" fill="#8B1232"/>
<path d="M99.5491 29.4927C98.4863 29.4927 97.6006 28.6071 97.6006 27.5443C97.6006 26.4815 98.4863 25.5958 99.5491 25.5958C100.612 25.5958 101.498 26.4815 101.498 27.5443C101.498 28.6071 100.612 29.4927 99.5491 29.4927ZM99.5491 24.0016C97.512 24.0016 95.9178 25.5958 95.9178 27.6328C95.9178 29.5813 97.512 31.2641 99.5491 31.2641C101.586 31.2641 103.18 29.6699 103.18 27.6328C103.18 25.5958 101.586 24.0016 99.5491 24.0016Z" fill="#8B1232"/>
<path d="M79.7987 1.77134C80.8615 1.77134 81.7472 2.657 81.7472 3.71981C81.7472 4.78261 80.8615 5.66828 79.7987 5.66828C78.7359 5.66828 77.8503 4.78261 77.8503 3.71981C77.8503 2.657 78.7359 1.77134 79.7987 1.77134ZM79.7987 7.26248C81.8358 7.26248 83.43 5.66828 83.43 3.63124C83.43 1.68277 81.8358 0 79.7987 0C77.7617 0.0885668 76.1675 1.68277 76.1675 3.71981C76.1675 5.66828 77.7617 7.26248 79.7987 7.26248Z" fill="#8B1232"/>
<path d="M58.0998 27.5443C58.0998 26.4815 58.9855 25.5959 60.0483 25.5959C61.1111 25.5959 61.9968 26.4815 61.9968 27.5443C61.9968 28.6071 61.1111 29.4928 60.0483 29.4928C58.8969 29.4928 58.0998 28.6071 58.0998 27.5443ZM63.591 27.5443C63.591 25.5959 61.9968 23.9131 59.9597 23.9131C57.9227 23.9131 56.3285 25.5073 56.3285 27.5443C56.3285 29.4928 57.9227 31.1756 59.9597 31.1756C61.9968 31.1756 63.591 29.5814 63.591 27.5443Z" fill="#8B1232"/>
<path d="M79.7987 53.4058C78.7359 53.4058 77.8503 52.5201 77.8503 51.4573C77.8503 50.3945 78.7359 49.5088 79.7987 49.5088C80.8615 49.5088 81.7472 50.3945 81.7472 51.4573C81.7472 52.5201 80.8615 53.4058 79.7987 53.4058ZM79.7987 47.826C77.7617 47.826 76.1675 49.4203 76.1675 51.4573C76.1675 53.4058 77.7617 55.0885 79.7987 55.0885C81.8358 55.0885 83.43 53.4943 83.43 51.4573C83.43 49.5088 81.8358 47.826 79.7987 47.826Z" fill="#8B1232"/>
<path d="M41.8035 3.63123H0V31.5298C0 46.8518 20.9018 51.4573 20.9018 51.4573C20.9018 51.4573 41.8035 46.8518 41.8035 31.5298V3.63123ZM40.8293 4.69403V31.5298C40.8293 34.8067 39.7665 37.818 37.818 40.475C36.1353 42.6892 33.8325 44.6377 30.9984 46.3204C26.57 48.9774 22.0531 50.1288 20.9903 50.3945C20.0161 50.1288 15.4992 48.9774 11.0709 46.3204C8.14815 44.6377 5.84541 42.6006 4.16264 40.475C2.1256 37.818 1.0628 34.8067 1.0628 31.5298V4.69403H40.8293Z" fill="#B18147"/>
<path d="M25.9501 12.5765V10.0081H23.2931V12.3994H22.2303V10.0081H19.4847V12.3994H18.599V10.0081H15.942V12.5765L17.2705 14.7907C17.3591 14.8792 17.3591 14.9678 17.3591 15.0564V26.7472H18.599V22.496C18.599 21.5217 19.7504 20.6361 20.9903 20.6361C22.2303 20.6361 23.3816 21.5217 23.3816 22.496V26.7472H24.7101V22.3188C24.7101 22.3188 24.7101 22.3188 24.7101 22.2303V20.0161V18.4219V17.7134V15.0564C24.7101 14.9678 24.7101 14.8792 24.7987 14.7907L25.9501 12.5765Z" fill="#B18147"/>
<path d="M16.2077 27.1015V23.2045L15.7649 23.4702C15.5878 23.5588 15.4106 23.5588 15.2335 23.4702L14.6135 23.116C14.6135 23.116 14.6135 23.116 14.6135 23.2045V24.7102C14.6135 24.8873 14.525 24.9759 14.4364 25.0644C14.525 25.0644 14.525 25.153 14.6135 25.153C15.3221 25.6844 15.3221 26.4815 15.2335 27.1015H16.2077Z" fill="#B18147"/>
<path d="M20.9017 21.6989C20.1046 21.6989 19.5732 22.2303 19.5732 22.5845V26.8357H22.2302V22.5845C22.2302 22.3188 21.6988 21.6989 20.9017 21.6989Z" fill="#B18147"/>
<path d="M5.22544 27.1015C5.04831 26.7472 4.95974 26.393 4.87118 25.9501C4.78261 25.153 4.78261 24.3559 4.78261 24.3559C4.78261 24.1788 4.95974 23.9131 5.13688 23.9131L6.28824 23.5588L5.04831 22.6731C4.87118 22.5846 4.87118 22.4074 4.87118 22.2303V20.8132C4.87118 20.6361 4.95974 20.459 5.13688 20.3704L5.66828 20.1047V19.5733L5.22544 19.3962C5.04831 19.3076 4.87118 19.1305 4.87118 18.9533V17.2706C4.87118 17.0049 5.13688 16.7392 5.40258 16.7392H6.99678C6.99678 16.2963 6.99678 15.7649 7.08535 15.2335C7.26248 14.6136 7.61675 13.905 7.79388 13.5508L7.70531 12.9308C7.70531 12.7537 7.70531 12.6651 7.79388 12.488C7.88245 12.3994 8.05958 12.3108 8.14815 12.3108H9.03382C9.12238 12.3108 9.21095 12.3108 9.29952 12.3994L11.4251 13.7279H12.3994C12.5765 13.7279 12.6651 13.8165 12.7536 13.905C12.8422 13.9936 12.9308 14.1707 12.9308 14.2593L12.8422 15.9421C12.8422 16.1192 12.7536 16.2078 12.6651 16.2963H13.285C13.4622 16.2963 13.5507 16.3849 13.6393 16.4735L13.905 16.7392L14.0821 16.562L14.4364 15.7649C14.525 15.5878 14.7021 15.4992 14.8792 15.4992H16.2077V15.2335L14.8792 13.0194C14.7907 12.9308 14.7907 12.8422 14.7907 12.7537V9.56525C14.7907 9.29955 15.0564 9.03385 15.3221 9.03385H18.599H19.6618H22.4074H23.4702H26.6586C26.9243 9.03385 27.19 9.29955 27.19 9.56525V12.7537C27.19 12.8422 27.19 12.9308 27.1014 13.0194L25.7729 15.2335V15.4992H27.1014C27.2786 15.4992 27.4557 15.5878 27.5443 15.7649L27.8986 16.562L28.0757 16.7392L28.3414 16.4735C28.43 16.3849 28.6071 16.2963 28.6957 16.2963H29.3156C29.2271 16.2078 29.1385 16.1192 29.1385 15.9421L29.0499 14.2593C29.0499 14.0822 29.1385 13.9936 29.2271 13.905C29.3156 13.8165 29.4928 13.7279 29.5813 13.7279H30.5556L32.6812 12.3994C32.7697 12.3108 32.8583 12.3108 32.9469 12.3108H33.8325C34.0097 12.3108 34.0982 12.3994 34.1868 12.488C34.2754 12.5765 34.3639 12.7537 34.2754 12.9308L34.1868 13.5508C34.3639 13.905 34.7182 14.525 34.8953 15.2335C34.9839 15.6764 34.9839 16.2963 34.9839 16.7392H36.5781C36.8438 16.7392 37.1095 17.0049 37.1095 17.2706V18.9533C37.1095 19.1305 37.0209 19.3076 36.7552 19.3962L36.2238 19.5733V20.0161L36.7552 20.2818C36.9324 20.3704 37.0209 20.5475 37.0209 20.7247V22.1417C37.0209 22.3189 36.9324 22.496 36.8438 22.5846L35.6039 23.4702L36.7552 23.8245C36.9324 23.9131 37.1095 24.0902 37.1095 24.2673C37.1095 24.2673 37.1095 25.0644 37.0209 25.8616C36.9324 26.3044 36.8438 26.7472 36.6667 27.0129H38.5266V7.17395H3.36554V27.0129H5.22544V27.1015Z" fill="#B18147"/>
<path d="M27.19 25.153C27.2786 25.153 27.2786 25.0644 27.3672 25.0644C27.2786 24.9759 27.19 24.7987 27.19 24.7102V23.2045C27.19 23.2045 27.19 23.2045 27.19 23.116L26.5701 23.4702C26.3929 23.5588 26.2158 23.5588 26.0387 23.4702L25.5958 23.2045V27.1015H26.6586C26.4815 26.4815 26.5701 25.6844 27.19 25.153Z" fill="#B18147"/>
<path d="M34.0097 37.7294C33.744 37.7294 33.4783 37.4637 33.4783 37.198V33.8325C33.4783 33.5668 33.3012 33.3011 33.124 33.0354C32.9469 32.8582 32.5926 32.5925 32.0612 32.5925C31.2641 32.5925 30.8213 33.2125 30.7327 33.8325V37.198C30.7327 37.3751 30.6441 37.4637 30.5556 37.5523C30.467 37.6408 30.2899 37.7294 30.2013 37.7294H27.1015C26.8358 37.7294 26.5701 37.4637 26.5701 37.198V33.8325C26.5701 33.5668 26.3929 33.3011 26.2158 33.0354C26.0387 32.8582 25.6844 32.5925 25.153 32.5925C24.7987 32.5925 24.533 32.6811 24.2673 32.9468L26.7472 45.789C30.2899 44.1948 34.4525 41.6263 36.7553 37.7294H34.0097Z" fill="#B18147"/>
<path d="M25.8615 46.1434L22.3188 28.1643H19.4847L15.942 46.1434V46.2319C18.4219 47.2062 20.3704 47.7376 20.9018 47.9147C21.4332 47.7376 23.4702 47.2062 25.8615 46.1434Z" fill="#B18147"/>
<path d="M17.4477 32.9468C17.182 32.7697 16.9163 32.5925 16.562 32.5925C16.0306 32.5925 15.7649 32.8582 15.4992 33.0354C15.2335 33.3011 15.145 33.5668 15.145 33.8325V37.198C15.145 37.4637 14.8793 37.7294 14.6136 37.7294H11.5137C11.3366 37.7294 11.248 37.6408 11.1595 37.5523C11.0709 37.4637 10.9823 37.2866 10.9823 37.198V33.8325C10.8938 33.2125 10.4509 32.5925 9.65381 32.5925C9.12241 32.5925 8.85671 32.8582 8.59101 33.0354C8.32531 33.3011 8.23675 33.5668 8.23675 33.8325V37.198C8.23675 37.4637 7.97105 37.7294 7.70534 37.7294H5.04834C7.26251 41.7149 11.5137 44.2833 14.9678 45.789L17.4477 32.9468Z" fill="#B18147"/>
<path d="M38.438 28.0757H23.3817L24.0902 31.8841C24.4445 31.7069 24.7987 31.6184 25.153 31.6184C25.8615 31.6184 26.4815 31.8841 26.9243 32.3269C27.3672 32.7697 27.6329 33.3011 27.6329 33.8325V36.6667H29.6699V33.8325C29.6699 33.8325 29.6699 33.8325 29.6699 33.744C29.7585 32.504 30.8213 31.6184 31.9726 31.5298C32.6812 31.5298 33.3011 31.7955 33.744 32.2383C34.1868 32.6812 34.4525 33.2126 34.4525 33.744V36.5781H37.2866C37.9952 35.0725 38.438 33.3011 38.438 31.3527V28.0757C38.5266 28.0757 38.438 28.0757 38.438 28.0757Z" fill="#B18147"/>
<path d="M7.26248 36.6667V33.8326C7.26248 33.3012 7.52818 32.7698 7.97101 32.3269C8.41385 31.8841 9.12238 31.6184 9.74235 31.6184C10.9823 31.6184 11.9565 32.5926 12.0451 33.8326C12.0451 33.8326 12.0451 33.8326 12.0451 33.9212V36.7553H14.1707V33.9212C14.1707 33.3897 14.4364 32.8583 14.8792 32.4155C15.3221 31.9727 16.0306 31.707 16.6506 31.707C17.0048 31.707 17.3591 31.7955 17.7134 31.9727L18.4219 28.1643H3.36554V31.5298C3.36554 33.4783 3.80837 35.2497 4.51691 36.7553L7.26248 36.6667Z" fill="#B18147"/>
<path d="M8.5024 26.0386H9.2995C9.38807 26.1272 9.38807 26.3043 9.38807 26.3929C9.38807 26.4814 9.38807 26.57 9.38807 26.57C9.38807 26.7471 9.38807 26.9243 9.2995 27.1014H6.46537C6.02253 26.8357 5.8454 25.6843 5.8454 24.7101L7.08533 24.3558C7.26247 24.2673 7.4396 24.0901 7.4396 23.8244V23.293C7.4396 23.1159 7.35103 22.9388 7.26247 22.8502L5.8454 21.876V20.9903L6.3768 20.7246C6.55393 20.636 6.6425 20.4589 6.6425 20.2817V19.1304C6.6425 18.9532 6.55393 18.7761 6.28823 18.6875L5.8454 18.5104V17.6247H7.1739L7.79387 18.6875V20.1932L7.35103 21.6102C7.26247 21.7874 7.35103 21.9645 7.4396 22.0531C7.52817 22.1417 7.7053 22.2302 7.88243 22.2302H8.2367C8.5024 22.2302 8.67954 22.0531 8.7681 21.7874C8.7681 21.5217 8.94524 20.9017 9.0338 20.636C9.12237 20.3703 9.47664 19.9275 9.74234 19.6618C9.91947 19.4846 9.91947 19.2189 9.74234 18.9532L7.971 16.9162C7.971 16.6505 7.88244 15.8534 7.971 15.4106C8.05957 14.8792 8.5024 14.1706 8.59097 13.9049C8.67954 13.8164 8.67954 13.6392 8.67954 13.5507V13.3735H8.7681L10.8937 14.702C10.9823 14.7906 11.0708 14.7906 11.1594 14.7906H11.6908V15.5877L10.9823 15.8534C10.8051 15.8534 10.628 16.0305 10.628 16.2962V16.8276C10.628 17.0933 10.8937 17.359 11.1594 17.359H12.9307L13.3736 17.8019C13.5507 17.979 13.8164 17.979 14.0821 17.8904C14.0821 17.8904 14.8792 17.2705 14.8792 17.1819L15.1449 16.5619H16.2077V17.8019V18.4218C16.2077 18.4218 14.3478 19.0418 14.1707 19.1304C14.0821 19.2189 13.9935 19.7503 13.9935 19.9275C13.9935 20.1046 13.9935 20.1046 14.1707 20.2817C14.1707 20.2817 14.7021 20.7246 14.8792 20.8131L15.4106 20.2817L16.1192 20.3703V22.1417L15.4106 22.5845L13.285 21.0788C13.0193 20.9017 12.7536 20.9903 12.5765 21.1674L12.2222 21.6102C12.0451 21.7874 12.0451 22.1417 12.3108 22.3188L13.5507 23.4702V24.4444L12.3993 24.7987C12.2222 24.8872 12.1336 25.0644 12.1336 25.2415V25.4186C12.1336 25.6843 12.3993 25.95 12.665 25.95H14.1707C14.4364 26.3043 14.3478 26.7471 14.2592 27.0128H10.8051C10.7166 26.9243 10.628 26.6586 10.628 26.3929C10.628 26.3043 10.628 26.3043 10.628 26.2157C10.628 25.8615 10.628 25.5072 10.7166 25.3301L11.5137 24.2673C11.6022 24.1787 11.6022 24.0901 11.6022 24.0016V23.4702C11.6022 23.293 11.5137 23.1159 11.4251 23.0273C11.1594 23.1159 10.9823 23.1159 10.8051 23.1159L9.47664 23.6473C9.2995 23.7359 9.21094 23.8244 9.12237 24.0901L9.0338 24.6215L8.32527 24.8872C8.14814 24.8872 7.971 25.0644 7.971 25.3301V25.5072C7.971 25.7729 8.2367 26.0386 8.5024 26.0386Z" fill="#B18147"/>
<path d="M33.3011 26.0386H32.504C32.4155 26.1272 32.4155 26.3043 32.4155 26.3929C32.4155 26.4814 32.4155 26.57 32.4155 26.57C32.4155 26.7471 32.4155 26.9243 32.504 27.1014H35.4267C35.8696 26.8357 36.0467 25.6843 36.0467 24.7101L34.8068 24.3558C34.6296 24.2673 34.4525 24.0901 34.4525 23.8244V23.293C34.4525 23.1159 34.5411 22.9388 34.6296 22.8502L36.0467 21.876V20.9903L35.5153 20.7246C35.3382 20.636 35.2496 20.4589 35.2496 20.2817V19.1304C35.2496 18.9532 35.3382 18.7761 35.6039 18.6875L36.0467 18.5104V17.6247H34.7182L34.0097 18.6875V20.1932L34.4525 21.6103C34.5411 21.7874 34.4525 21.9645 34.3639 22.0531C34.2754 22.1417 34.0982 22.2302 33.9211 22.2302H33.5668C33.3011 22.2302 33.124 22.0531 33.0354 21.7874C33.0354 21.5217 32.8583 20.9017 32.7697 20.636C32.6812 20.3703 32.3269 19.9275 32.0612 19.6618C31.8841 19.4846 31.8841 19.2189 32.0612 18.9532L33.8325 16.9162C33.8325 16.6505 33.9211 15.8534 33.8325 15.4106C33.744 14.8792 33.3011 14.1706 33.2126 13.9049C33.124 13.8164 33.124 13.6392 33.124 13.5507V13.3735H33.0354L30.9984 14.702C30.9098 14.7906 30.8213 14.7906 30.7327 14.7906H30.1127V15.5877L30.8213 15.8534C30.9984 15.942 31.1755 16.1191 31.1755 16.3848V16.9162C31.1755 17.1819 30.9098 17.4476 30.6441 17.4476H28.8728L28.43 17.8019C28.2528 17.979 27.9871 17.979 27.7214 17.8904C27.7214 17.8904 26.9243 17.2705 26.9243 17.1819L26.6586 16.5619H25.5958V17.8019V18.4218C25.5958 18.4218 27.4557 19.0418 27.6329 19.1304C27.7214 19.2189 27.81 19.7503 27.81 19.9275C27.81 20.1046 27.81 20.1046 27.6329 20.2817C27.6329 20.2817 27.1015 20.7246 26.9243 20.8131L26.3929 20.2817L25.6844 20.3703V22.1417L26.3929 22.5845L28.5185 21.0789C28.7842 20.9017 29.0499 20.9903 29.2271 21.1674L29.5813 21.6103C29.7585 21.7874 29.7585 22.1417 29.4928 22.3188L28.2528 23.4702V24.4444L29.4928 24.9758C29.6699 25.0644 29.7585 25.2415 29.7585 25.4186V25.5958C29.7585 25.8615 29.4928 26.1272 29.2271 26.1272H27.7214C27.4557 26.4814 27.5443 26.9243 27.6329 27.19H31.087C31.1755 27.1014 31.2641 26.8357 31.2641 26.57C31.2641 26.4814 31.2641 26.4814 31.2641 26.3929C31.2641 26.0386 31.2641 25.6843 31.1755 25.5072L30.3784 24.4444C30.2899 24.3558 30.2899 24.2673 30.2899 24.1787V23.6473C30.2899 23.4702 30.3784 23.293 30.467 23.2045C30.6441 23.1159 30.8213 23.1159 30.9984 23.1159L32.3269 23.6473C32.504 23.7359 32.5926 23.8244 32.6812 24.0901L32.7697 24.6215L33.4783 24.8872C33.6554 24.9758 33.8325 25.1529 33.8325 25.4186V25.5958C33.8325 25.7729 33.6554 26.0386 33.3011 26.0386Z" fill="#B18147"/>
<path d="M114.163 21.4332C114.163 19.4847 115.58 17.7134 117.705 17.7134C118.945 17.7134 119.654 18.0676 120.362 18.6876L119.831 19.3076C119.299 18.8647 118.68 18.5105 117.705 18.5105C116.111 18.5105 114.96 19.839 114.96 21.4332C114.96 23.116 116.023 24.3559 117.794 24.3559C118.591 24.3559 119.388 24.0016 119.831 23.6474V21.876H117.705V21.1675H120.628V24.0016C120.008 24.6216 118.945 25.0644 117.794 25.0644C115.58 25.153 114.163 23.4702 114.163 21.4332Z" fill="#8B1232"/>
<path d="M129.75 21.4332C129.75 19.839 128.599 18.5105 126.916 18.5105C125.322 18.5105 124.171 19.839 124.171 21.4332C124.171 23.0274 125.322 24.3559 127.005 24.3559C128.688 24.3559 129.75 23.116 129.75 21.4332ZM123.285 21.4332C123.285 19.4847 124.791 17.7134 126.916 17.7134C129.042 17.7134 130.548 19.3961 130.548 21.3446C130.548 23.2931 129.042 25.0644 126.916 25.0644C124.791 25.153 123.285 23.4702 123.285 21.4332Z" fill="#8B1232"/>
<path d="M136.481 21.7874H134.267V24.2673H136.659C137.721 24.2673 138.43 23.8245 138.43 23.0274C138.43 22.2303 137.721 21.7874 136.481 21.7874ZM137.987 19.7504C137.987 19.0419 137.456 18.599 136.393 18.599H134.267V21.0789H136.393C137.367 21.0789 137.987 20.6361 137.987 19.7504ZM133.47 17.8905H136.481C137.279 17.8905 137.899 18.1562 138.341 18.5105C138.607 18.7762 138.784 19.219 138.784 19.6618C138.784 20.5475 138.253 21.0789 137.633 21.3446C138.519 21.6103 139.139 22.0531 139.139 23.0274C139.139 24.2673 138.076 24.9759 136.57 24.9759H133.382V17.8905H133.47Z" fill="#8B1232"/>
<path d="M142.858 17.8905H142.061V24.9759H142.858V17.8905Z" fill="#8B1232"/>
<path d="M146.135 17.8905H151.272V18.599H146.932V21.0789H150.829V21.7874H146.932V24.2673H151.361V24.9759H146.135V17.8905Z" fill="#8B1232"/>
<path d="M157.029 21.5217C158.092 21.5217 158.889 20.9903 158.889 20.0161C158.889 19.1304 158.18 18.599 157.029 18.599H154.815V21.5217H157.029ZM154.018 17.8905H157.118C158.003 17.8905 158.712 18.1562 159.155 18.599C159.509 18.9533 159.686 19.4847 159.686 20.0161C159.686 21.1675 158.889 21.876 157.738 22.0531L159.952 24.9759H158.977L156.94 22.2303H154.903V24.9759H154.106V17.8905C154.106 17.8905 154.018 17.8905 154.018 17.8905Z" fill="#8B1232"/>
<path d="M162.52 17.8905H163.317L167.746 23.5588V17.8905H168.543V24.9759H167.923L163.317 19.1304V24.9759H162.52V17.8905Z" fill="#8B1232"/>
<path d="M177.842 21.4332C177.842 19.839 176.691 18.5105 175.008 18.5105C173.414 18.5105 172.262 19.839 172.262 21.4332C172.262 23.0274 173.414 24.3559 175.097 24.3559C176.779 24.3559 177.842 23.116 177.842 21.4332ZM171.465 21.4332C171.465 19.4847 172.971 17.7134 175.097 17.7134C177.222 17.7134 178.728 19.3961 178.728 21.3446C178.728 23.2931 177.222 25.0644 175.097 25.0644C172.882 25.153 171.465 23.4702 171.465 21.4332Z" fill="#8B1232"/>
<path d="M186.079 18.599V24.2673H187.762C189.533 24.2673 190.684 23.0274 190.684 21.4332C190.684 19.839 189.533 18.599 187.762 18.599H186.079ZM185.282 17.8905H187.762C189.976 17.8905 191.57 19.3961 191.57 21.4332C191.57 23.4702 190.064 24.9759 187.762 24.9759H185.282V17.8905Z" fill="#8B1232"/>
<path d="M194.138 17.8905H199.275V18.599H194.936V21.0789H198.833V21.7874H194.936V24.2673H199.275V24.9759H194.138V17.8905Z" fill="#8B1232"/>
<path d="M205.741 17.8905H206.538V24.2673H210.523V24.9759H205.741V17.8905Z" fill="#8B1232"/>
<path d="M217.432 22.4074L215.837 18.7761L214.243 22.4074H217.432ZM215.483 17.8019H216.192L219.469 24.9758H218.583L217.786 23.1159H213.889L213.003 24.9758H212.206L215.483 17.8019Z" fill="#8B1232"/>
<path d="M114.074 33.6554C114.074 31.6183 115.58 29.9355 117.794 29.9355C119.122 29.9355 119.92 30.3784 120.628 30.9983L119.654 32.1497C119.122 31.6183 118.502 31.3526 117.794 31.3526C116.554 31.3526 115.757 32.3268 115.757 33.5668C115.757 34.8067 116.643 35.781 117.794 35.781C118.591 35.781 119.122 35.4267 119.654 34.9839L120.628 35.9581C119.92 36.7552 119.122 37.198 117.705 37.198C115.58 37.3752 114.074 35.6924 114.074 33.6554Z" fill="#8B1232"/>
<path d="M123.462 30.1127H121.868V37.198H123.462V30.1127Z" fill="#8B1232"/>
<path d="M125.322 34.1867V30.1127H126.916V34.1867C126.916 35.3381 127.536 35.9581 128.422 35.9581C129.396 35.9581 129.927 35.3381 129.927 34.2753V30.2012H131.522V34.1867C131.522 36.3123 130.282 37.3752 128.422 37.3752C126.473 37.3752 125.322 36.3123 125.322 34.1867Z" fill="#8B1232"/>
<path d="M136.039 35.7809C137.279 35.7809 138.164 34.8953 138.164 33.6553C138.164 32.4154 137.279 31.5297 136.039 31.5297H134.799V35.8695L136.039 35.7809ZM133.293 30.1127H136.039C138.253 30.1127 139.847 31.6183 139.847 33.6553C139.847 35.6924 138.341 37.198 136.039 37.198H133.293V30.1127Z" fill="#8B1232"/>
<path d="M144.984 34.2754L144.01 31.9726L143.035 34.2754H144.984ZM143.301 30.0242H144.718L147.729 37.1981H146.135L145.515 35.6039H142.504L141.884 37.1981H140.29L143.301 30.0242Z" fill="#8B1232"/>
<path d="M151.715 35.7809C152.955 35.7809 153.841 34.8953 153.841 33.6553C153.841 32.4154 152.955 31.5297 151.715 31.5297H150.475V35.8695L151.715 35.7809ZM148.969 30.1127H151.715C153.929 30.1127 155.523 31.6183 155.523 33.6553C155.523 35.6924 154.018 37.198 151.715 37.198H148.969V30.1127Z" fill="#8B1232"/>
<path d="M162.874 35.7809C164.114 35.7809 165 34.8953 165 33.6553C165 32.4154 164.114 31.5297 162.874 31.5297H161.634V35.8695L162.874 35.7809ZM160.04 30.1127H162.786C165 30.1127 166.594 31.6183 166.594 33.6553C166.594 35.6924 165.089 37.198 162.786 37.198H160.04V30.1127Z" fill="#8B1232"/>
<path d="M168.1 30.1127H173.502V31.5297H169.694V32.9468H173.06V34.3639H169.694V35.8695H173.502V37.198H168.1V30.1127Z" fill="#8B1232"/>
<path d="M178.108 30.1127H179.791L181.651 33.1239L183.51 30.1127H185.193V37.198H183.688V32.5925L181.651 35.6038L179.614 32.5925V37.198H178.108V30.1127Z" fill="#8B1232"/>
<path d="M190.064 27.7214L191.393 28.3414L190.064 29.5813H188.913L190.064 27.7214ZM187.053 30.1127H192.456V31.5298H188.647V32.9469H192.013V34.3639H188.647V35.8696H192.544V37.2867H187.142L187.053 30.1127Z" fill="#8B1232"/>
<path d="M195.998 33.5668L193.607 30.1127H195.467L196.973 32.4154L198.478 30.1127H200.25L197.858 33.5668L200.338 37.198H198.478L196.884 34.8067L195.29 37.198H193.518L195.998 33.5668Z" fill="#8B1232"/>
<path d="M203.172 30.1127H201.578V37.198H203.172V30.1127Z" fill="#8B1232"/>
<path d="M204.589 33.6554C204.589 31.6183 206.095 29.9355 208.309 29.9355C209.638 29.9355 210.435 30.3784 211.143 30.9983L210.169 32.1497C209.638 31.6183 209.018 31.3526 208.309 31.3526C207.069 31.3526 206.272 32.3268 206.272 33.5668C206.272 34.8067 207.158 35.781 208.309 35.781C209.106 35.781 209.638 35.4267 210.169 34.9839L211.143 35.9581C210.435 36.7552 209.638 37.198 208.221 37.198C206.184 37.3752 204.589 35.6924 204.589 33.6554Z" fill="#8B1232"/>
<path d="M217.874 33.6554C217.874 32.4154 216.989 31.3526 215.749 31.3526C214.509 31.3526 213.623 32.3269 213.623 33.5668C213.623 34.8067 214.509 35.781 215.749 35.781C216.989 35.8695 217.874 34.8953 217.874 33.6554ZM211.94 33.6554C211.94 31.6183 213.535 29.9355 215.749 29.9355C217.963 29.9355 219.557 31.6183 219.557 33.5668C219.557 35.6038 217.963 37.2866 215.749 37.2866C213.535 37.2866 211.94 35.6924 211.94 33.6554Z" fill="#8B1232"/>
<path d="M244.356 26.2158C243.204 26.2158 242.053 25.8615 241.167 24.9758L242.142 23.8244C242.85 24.3558 243.559 24.7101 244.356 24.7101C245.064 24.7101 245.419 24.4444 245.419 24.0016C245.419 23.5587 245.153 23.3816 243.913 23.0273C242.407 22.6731 241.433 22.2302 241.433 20.7246C241.433 19.3961 242.496 18.4219 244.09 18.4219C245.153 18.4219 246.127 18.7761 246.924 19.3961L246.039 20.636C245.33 20.1932 244.71 19.9275 244.09 19.9275C243.47 19.9275 243.116 20.1932 243.116 20.5475C243.116 21.0789 243.47 21.1674 244.71 21.5217C246.216 21.876 247.101 22.4959 247.101 23.8244C247.19 25.3301 246.039 26.2158 244.356 26.2158Z" fill="#8B1232"/>
<path d="M248.518 26.1272V18.599H254.187V20.1046H250.113V21.6103H253.655V23.1159H250.113V24.7101H254.187V26.2157H248.518V26.1272Z" fill="#8B1232"/>
<path d="M259.147 26.2158C256.932 26.2158 255.25 24.533 255.25 22.3188C255.25 20.1932 256.844 18.4219 259.147 18.4219C260.564 18.4219 261.449 18.8647 262.158 19.5732L261.095 20.8132C260.475 20.2818 259.944 19.9275 259.147 19.9275C257.907 19.9275 256.932 20.9903 256.932 22.2302C256.932 23.5587 257.818 24.6216 259.147 24.6216C260.032 24.6216 260.564 24.2673 261.095 23.7359L262.158 24.7987C261.449 25.6844 260.652 26.2158 259.147 26.2158Z" fill="#8B1232"/>
<path d="M268.092 26.1272L266.498 23.7359H265.169V26.1272H263.486V18.599H266.94C268.712 18.599 269.775 19.5732 269.775 21.0789C269.775 22.3188 269.155 23.0273 268.18 23.3816L270.04 26.0386H268.092V26.1272ZM268.092 21.1674C268.092 20.4589 267.56 20.1046 266.763 20.1046H265.08V22.2302H266.763C267.649 22.2302 268.092 21.7874 268.092 21.1674Z" fill="#8B1232"/>
<path d="M271.192 26.1272V18.599H276.86V20.1046H272.786V21.6103H276.328V23.1159H272.786V24.7101H276.86V26.2157H271.192V26.1272Z" fill="#8B1232"/>
<path d="M281.731 20.1046V26.1272H280.048V20.1046H277.746V18.599H283.945V20.1046H281.731Z" fill="#8B1232"/>
<path d="M289.879 26.1272L289.171 24.4445H285.982L285.274 26.1272H283.591L286.779 18.5105H288.285L291.473 26.1272H289.879ZM287.576 20.459L286.602 22.9388H288.639L287.576 20.459Z" fill="#8B1232"/>
<path d="M297.23 26.1272L295.636 23.7359H294.308V26.1272H292.625V18.599H296.079C297.85 18.599 298.913 19.5732 298.913 21.0789C298.913 22.3188 298.293 23.0273 297.319 23.3816L299.179 26.0386H297.23V26.1272ZM297.319 21.1674C297.319 20.4589 296.787 20.1046 295.99 20.1046H294.308V22.2302H295.99C296.876 22.2302 297.319 21.7874 297.319 21.1674Z" fill="#8B1232"/>
<path d="M300.507 26.1272V18.599H302.19V26.1272H300.507ZM300.596 17.979L301.836 16.1191L303.253 16.7391L301.836 18.0676H300.596V17.979Z" fill="#8B1232"/>
<path d="M309.541 26.1272L308.833 24.4445H305.644L304.936 26.1272H303.253L306.441 18.5105H307.947L311.135 26.1272H309.541ZM307.238 20.459L306.264 22.9388H308.301L307.238 20.459Z" fill="#8B1232"/>
<path d="M318.398 26.1272H315.475V18.599H318.398C320.789 18.599 322.383 20.1932 322.383 22.3188C322.472 24.4444 320.789 26.1272 318.398 26.1272ZM320.7 22.3188C320.7 20.9903 319.815 20.0161 318.398 20.0161H317.158V24.533H318.398C319.815 24.6215 320.7 23.6473 320.7 22.3188Z" fill="#8B1232"/>
<path d="M323.8 26.1272V18.599H329.469V20.1046H325.395V21.6103H328.937V23.1159H325.395V24.7101H329.469V26.2157H323.8V26.1272Z" fill="#8B1232"/>
<path d="M247.633 38.9694V34.0097L245.507 37.1981L243.382 34.0097V38.8808H241.787V31.3527H243.559L245.507 34.5411L247.456 31.3527H249.227V38.8808L247.633 38.9694Z" fill="#8B1232"/>
<path d="M254.63 39.1465C252.327 39.1465 250.644 37.3752 250.644 35.2496C250.644 33.124 252.327 31.3527 254.63 31.3527C256.932 31.3527 258.615 33.124 258.615 35.2496C258.615 37.3752 256.932 39.1465 254.63 39.1465ZM256.932 35.2496C256.932 33.9211 255.958 32.8583 254.63 32.8583C253.301 32.8583 252.327 33.9211 252.327 35.161C252.327 36.4895 253.301 37.5523 254.63 37.5523C255.958 37.5523 256.932 36.5781 256.932 35.2496Z" fill="#8B1232"/>
<path d="M263.398 39.0579H261.892L258.881 31.4412H260.741L262.689 36.7552L264.638 31.4412H266.409L263.398 39.0579Z" fill="#8B1232"/>
<path d="M267.649 38.9693V31.4412H269.332V38.9693H267.649Z" fill="#8B1232"/>
<path d="M271.103 38.9693V31.4412H272.786V37.4637H276.506V38.9693H271.103Z" fill="#8B1232"/>
<path d="M277.746 38.9693V31.4412H279.428V38.9693H277.746Z" fill="#8B1232"/>
<path d="M284.122 38.9693H281.2V31.4412H284.122C286.514 31.4412 288.108 33.0354 288.108 35.161C288.108 37.3751 286.514 38.9693 284.122 38.9693ZM286.425 35.2495C286.425 33.921 285.539 32.9468 284.122 32.9468H282.882V37.4637H284.122C285.539 37.4637 286.425 36.578 286.425 35.2495Z" fill="#8B1232"/>
<path d="M294.573 38.9694L293.865 37.2866H290.676L289.968 38.9694H288.285L291.473 31.3527H292.979L296.167 38.9694H294.573ZM292.359 33.3897L291.385 35.8696H293.422L292.359 33.3897Z" fill="#8B1232"/>
<path d="M300.33 38.9693H297.407V31.4412H300.33C302.721 31.4412 304.316 33.0354 304.316 35.161C304.404 37.3751 302.721 38.9693 300.33 38.9693ZM302.633 35.2495C302.633 33.921 301.747 32.9468 300.33 32.9468H299.09V37.4637H300.33C301.747 37.4637 302.633 36.578 302.633 35.2495Z" fill="#8B1232"/>
</svg>
