<svg width="361" height="54" viewBox="0 0 361 54" fill="none" xmlns="http://www.w3.org/2000/svg">
<path fill-rule="evenodd" clip-rule="evenodd" d="M69.8077 28.875C70.125 29.2981 70.4423 29.5096 70.9712 29.5096C71.7115 29.5096 72.1346 28.7692 72.1346 28.7692L84.1923 13.4327C85.1442 12.375 86.2019 13.2212 86.2019 13.2212C87.1539 14.1731 86.4135 15.125 86.4135 15.125L83.6635 18.5096C83.4519 18.7212 83.2404 19.0385 83.2404 19.4615C83.2404 19.7788 83.3462 20.0962 83.5577 20.3077L86.3077 23.6923L94.875 12.9038L91.4904 8.56731L90.9616 7.82692C90.4327 7.08654 89.1635 6.875 89.1635 6.875H84.0866C82.7116 6.875 81.9712 7.82692 81.9712 7.82692L67.5865 26.0192L69.8077 28.875Z" fill="#8B1232"/>
<path fill-rule="evenodd" clip-rule="evenodd" d="M69.1731 19.4616L65.7885 15.125C65.0481 13.9616 66.1058 13.2212 66.1058 13.2212C67.375 12.4808 68.1154 13.6442 68.1154 13.6442L70.9712 17.2404L74.3558 12.9039L70.4423 7.93271C69.4904 6.66348 68.1154 6.76925 68.1154 6.76925H63.4616C61.9808 6.76925 61.3462 7.72117 61.3462 7.72117L57.2212 12.9039L65.7885 23.7981L69.1731 19.4616Z" fill="#8B1232"/>
<path fill-rule="evenodd" clip-rule="evenodd" d="M82.3943 23.1634C82.3943 23.1634 81.9712 22.5288 81.2308 22.5288C80.4904 22.5288 80.0674 23.0577 80.0674 23.0577L67.9039 38.7115C66.952 39.7692 65.8943 38.923 65.8943 38.923C64.9423 37.9711 65.6827 37.0192 65.6827 37.0192L68.4327 33.5288C68.6443 33.3173 68.8558 33 68.8558 32.5769C68.8558 32.2596 68.75 31.9423 68.5385 31.7307L65.7885 28.3461L57.2212 39.2403L61.9808 45.2692H69.4904L84.6154 26.0192L82.3943 23.1634Z" fill="#8B1232"/>
<path fill-rule="evenodd" clip-rule="evenodd" d="M83.0288 32.577L86.5192 37.0193C87.3654 38.077 86.3077 38.9232 86.3077 38.9232C84.9327 39.7693 84.1923 38.5001 84.1923 38.5001L81.3365 34.7982L77.8461 39.1347L82.7115 45.2693H90.2211L94.9808 39.1347L86.4134 28.2405L83.0288 32.577Z" fill="#8B1232"/>
<path fill-rule="evenodd" clip-rule="evenodd" d="M94.875 22.6345C92.9712 22.6345 91.3846 24.1153 91.3846 26.0191C91.3846 27.923 92.9712 29.4038 94.875 29.4038C96.7789 29.4038 98.3654 27.923 98.3654 26.0191C98.3654 24.1153 96.7789 22.6345 94.875 22.6345ZM94.875 27.923C93.8173 27.923 93.0769 27.0768 93.0769 26.1249C93.0769 25.173 93.9231 24.3268 94.875 24.3268C95.9327 24.3268 96.6731 25.173 96.6731 26.1249C96.6731 27.0768 95.9327 27.923 94.875 27.923Z" fill="#8B1232"/>
<path fill-rule="evenodd" clip-rule="evenodd" d="M76.0481 6.76923C77.9519 6.76923 79.5384 5.28846 79.5384 3.38462C79.5384 1.48077 77.9519 0 76.0481 0C74.1442 0 72.5577 1.48077 72.5577 3.38462C72.5577 5.28846 74.1442 6.76923 76.0481 6.76923ZM76.0481 1.58654C77.1058 1.58654 77.8461 2.43269 77.8461 3.38462C77.8461 4.33654 77 5.18269 76.0481 5.18269C74.9904 5.18269 74.25 4.33654 74.25 3.38462C74.25 2.43269 75.0961 1.58654 76.0481 1.58654Z" fill="#8B1232"/>
<path fill-rule="evenodd" clip-rule="evenodd" d="M76.0481 52.2499C77.9519 52.2499 79.5384 50.7692 79.5384 48.8653C79.5384 46.9615 77.9519 45.4807 76.0481 45.4807C74.1442 45.4807 72.5577 46.9615 72.5577 48.8653C72.6634 50.6634 74.1442 52.2499 76.0481 52.2499ZM76.0481 46.9615C77.1058 46.9615 77.8461 47.8076 77.8461 48.7596C77.8461 49.8173 77 50.5576 76.0481 50.5576C74.9904 50.5576 74.25 49.7115 74.25 48.7596C74.25 47.8076 75.0961 46.9615 76.0481 46.9615Z" fill="#8B1232"/>
<path fill-rule="evenodd" clip-rule="evenodd" d="M60.7115 26.0191C60.7115 24.1153 59.125 22.6345 57.2212 22.6345C55.3173 22.6345 53.7308 24.1153 53.7308 26.0191C53.7308 27.923 55.3173 29.4038 57.2212 29.4038C59.125 29.4038 60.7115 27.923 60.7115 26.0191ZM55.4231 26.0191C55.4231 24.9614 56.2692 24.2211 57.2212 24.2211C58.2788 24.2211 59.0192 25.0672 59.0192 26.0191C59.0192 27.0768 58.1731 27.8172 57.2212 27.8172C56.1635 27.923 55.4231 27.0768 55.4231 26.0191Z" fill="#8B1232"/>
<mask id="mask0_1_11856" style="mask-type:alpha" maskUnits="userSpaceOnUse" x="0" y="3" width="40" height="46">
<path fill-rule="evenodd" clip-rule="evenodd" d="M0 3.33838H39.875V48.7134H0V3.33838Z" fill="white"/>
</mask>
<g mask="url(#mask0_1_11856)">
<path fill-rule="evenodd" clip-rule="evenodd" d="M38.9231 4.39607V29.8865C38.9231 32.9538 37.9711 35.8095 36.0673 38.348C34.4808 40.4634 32.2596 42.2615 29.5096 43.9538C25.2788 46.3865 20.9423 47.5499 19.9904 47.8672C19.0385 47.6557 14.7019 46.4922 10.4712 44.0595C7.72115 42.473 5.5 40.5691 3.91346 38.4538C2.00962 35.9153 0.951923 33.0595 0.951923 29.9922V4.39607H38.9231ZM39.875 3.33838H0V29.7807C0 44.2711 19.8846 48.6076 19.8846 48.6076C19.8846 48.6076 39.7692 44.2711 39.7692 29.7807V3.33838H39.875Z" fill="#B18147"/>
</g>
<path fill-rule="evenodd" clip-rule="evenodd" d="M24.75 11.8463V9.41357H22.2115V11.6347H21.2596V9.41357H18.7212V11.6347H17.7692V9.41357H15.2308V11.8463L16.5 13.9617C16.5 14.0674 16.6058 14.0674 16.6058 14.1732V25.279H17.7692V21.2597C17.7692 20.3078 18.8269 19.4616 19.9904 19.4616C21.1539 19.4616 22.2115 20.3078 22.2115 21.2597V25.279H23.4808V21.0482C23.4808 21.0482 23.4808 21.0482 23.4808 20.9424V18.827V17.3463V16.7117V14.1732C23.4808 14.0674 23.4808 13.9617 23.5865 13.9617L24.75 11.8463Z" fill="#B18147"/>
<path fill-rule="evenodd" clip-rule="evenodd" d="M15.4423 25.5962V21.8943L15.0192 22.2116C14.8077 22.3174 14.5962 22.3174 14.4904 22.2116L13.9615 21.8943V23.2693C13.9615 23.3751 13.8558 23.5866 13.75 23.6924C13.8558 23.6924 13.8558 23.6924 13.8558 23.7981C14.4904 24.327 14.5962 25.0674 14.3846 25.702H15.4423V25.5962Z" fill="#B18147"/>
<path fill-rule="evenodd" clip-rule="evenodd" d="M19.8846 20.5193C19.1442 20.5193 18.6154 21.0481 18.6154 21.3654V25.3847H21.1538V21.3654C21.2596 21.0481 20.7307 20.5193 19.8846 20.5193Z" fill="#B18147"/>
<path fill-rule="evenodd" clip-rule="evenodd" d="M4.97117 25.5962C4.8654 25.2789 4.75963 24.9616 4.65387 24.4328C4.5481 23.6924 4.5481 22.952 4.5481 22.952C4.5481 22.7404 4.65386 22.5289 4.8654 22.5289L5.9231 22.2116L4.75963 21.3654C4.65387 21.2597 4.5481 21.1539 4.5481 20.9424V19.5674C4.5481 19.3558 4.65387 19.2501 4.75963 19.1443L5.28848 18.9327V18.5097L4.8654 18.2981C4.65386 18.1924 4.5481 18.0866 4.5481 17.8751V16.2885C4.5481 15.9712 4.75963 15.7597 5.07694 15.7597H6.55771C6.55771 15.3366 6.55771 14.8077 6.66348 14.3847C6.76925 13.7501 7.08656 13.0097 7.2981 12.6924L7.19233 12.1635C7.19233 12.0577 7.19233 11.8462 7.2981 11.7404C7.40387 11.6347 7.50963 11.6347 7.72117 11.6347H8.46156C8.56733 11.6347 8.6731 11.6347 8.6731 11.7404L10.6827 13.0097H11.6346C11.7404 13.0097 11.8462 13.1154 11.9519 13.1154C12.0577 13.2212 12.0577 13.327 12.0577 13.4327L11.9519 15.0193C11.9519 15.1251 11.8462 15.2308 11.7404 15.3366H12.375C12.4808 15.3366 12.5866 15.4424 12.6923 15.4424L13.0096 15.7597L13.2212 15.5481L13.5385 14.8077C13.6443 14.5962 13.75 14.4904 13.9616 14.4904H15.2308V14.1731L13.9616 12.0577C13.9616 11.952 13.8558 11.952 13.8558 11.8462V8.88467C13.8558 8.56736 14.0673 8.35583 14.3846 8.35583H17.4519H18.4039H20.9423H22.2116H25.1731C25.4904 8.35583 25.7019 8.56736 25.7019 8.88467V11.952C25.7019 12.0577 25.7019 12.1635 25.5962 12.1635L24.3269 14.2789V14.5962H25.5962C25.8077 14.5962 25.9135 14.702 26.0193 14.9135L26.3366 15.6539L26.5481 15.8654L26.8654 15.5481C26.9712 15.4424 27.0769 15.4424 27.1827 15.4424H27.8173C27.7116 15.3366 27.7116 15.2308 27.7116 15.1251L27.6058 13.5385C27.6058 13.4327 27.6058 13.327 27.7116 13.2212C27.8173 13.1154 27.9231 13.1154 28.0289 13.1154H28.9808L30.9904 11.8462C31.0962 11.8462 31.2019 11.7404 31.2019 11.7404H32.0481C32.1539 11.7404 32.3654 11.8462 32.3654 11.952C32.4712 12.0577 32.4712 12.1635 32.4712 12.3751L32.5769 12.6924C32.7885 13.0097 33.1058 13.6443 33.2116 14.2789C33.3173 14.702 33.3173 15.2308 33.3173 15.6539H34.7981C35.1154 15.6539 35.3269 15.8654 35.3269 16.1827V17.7693C35.3269 17.9808 35.2212 18.1924 35.0096 18.1924L34.5866 18.4039V18.827L35.0096 19.0385C35.2212 19.1443 35.2212 19.2501 35.2212 19.4616V20.8366C35.2212 20.9424 35.1154 21.1539 35.0096 21.2597L33.8462 22.2116L34.9039 22.5289C35.1154 22.6347 35.2212 22.7404 35.2212 22.952C35.2212 22.952 35.2212 23.6924 35.1154 24.4328C35.0096 24.8558 34.9039 25.2789 34.7981 25.5962H36.5962V6.76929H3.1731V25.5962H4.97117Z" fill="#B18147"/>
<path fill-rule="evenodd" clip-rule="evenodd" d="M25.9134 23.6924L26.0192 23.5866C25.9134 23.4809 25.8077 23.3751 25.8077 23.1636V21.7886L25.3846 22.1059C25.1731 22.2117 25.0673 22.2117 24.8558 22.1059L24.4327 21.8943V25.5963H25.3846C25.2788 24.9617 25.2788 24.2213 25.9134 23.6924Z" fill="#B18147"/>
<path fill-rule="evenodd" clip-rule="evenodd" d="M32.4711 35.6443C32.1538 35.6443 31.9423 35.4327 31.9423 35.1154V31.9423C31.9423 31.7308 31.8365 31.4135 31.625 31.2019C31.4135 30.9904 31.0961 30.7789 30.5673 30.7789C29.8269 30.7789 29.4038 31.4135 29.2981 31.9423V35.1154C29.2981 35.2212 29.2981 35.3269 29.1923 35.4327C29.0865 35.5385 28.9808 35.5385 28.875 35.5385H25.9135C25.5961 35.5385 25.3846 35.3269 25.3846 35.0096V31.8366C25.3846 31.625 25.2788 31.3077 25.0673 31.0962C24.8558 30.8846 24.5385 30.6731 24.0096 30.6731C23.6923 30.6731 23.375 30.7789 23.1635 30.9904L25.5961 43.3654C28.9808 41.8846 33 39.4519 35.1154 35.6443H32.4711Z" fill="#B18147"/>
<path fill-rule="evenodd" clip-rule="evenodd" d="M24.6442 43.6827L21.2596 26.6538H18.5096L15.125 43.6827C15.125 43.6827 15.125 43.6827 15.125 43.7884C17.4519 44.7404 19.3558 45.2692 19.8846 45.375C20.5192 45.1634 22.4231 44.6346 24.6442 43.6827Z" fill="#B18147"/>
<path fill-rule="evenodd" clip-rule="evenodd" d="M16.7115 31.2018C16.5 30.9903 16.1827 30.8845 15.8654 30.8845C15.3365 30.8845 15.0192 31.0961 14.9134 31.3076C14.7019 31.5191 14.5961 31.8364 14.5961 32.048V35.2211C14.5961 35.5384 14.3846 35.7499 14.0673 35.7499H11.1057C11 35.7499 10.8942 35.7499 10.7884 35.6441C10.5769 35.4326 10.5769 35.3268 10.5769 35.2211V32.048C10.4711 31.5191 10.048 30.8845 9.30766 30.8845C8.77882 30.8845 8.46151 31.0961 8.35574 31.3076C8.1442 31.5191 8.03843 31.8364 8.03843 32.048V35.2211C8.03843 35.5384 7.8269 35.7499 7.50959 35.7499H4.86536C6.98074 39.4518 11 41.8845 14.3846 43.3653L16.7115 31.2018Z" fill="#B18147"/>
<path fill-rule="evenodd" clip-rule="evenodd" d="M36.7019 26.5481H22.3173L23.0577 30.1443C23.375 29.9327 23.6923 29.9327 24.1154 29.8269C24.75 29.8269 25.3846 30.0385 25.8077 30.4616C26.2308 30.8846 26.4423 31.4135 26.4423 31.9423V34.6923H28.3462V31.9423C28.4519 30.7789 29.4039 29.9327 30.5673 29.8269C31.2019 29.8269 31.8366 30.0385 32.2596 30.4616C32.6827 30.8846 32.8942 31.4135 32.8942 31.9423V34.6923H35.5385C36.1731 33.2116 36.5962 31.625 36.5962 29.7212L36.7019 26.5481Z" fill="#B18147"/>
<path fill-rule="evenodd" clip-rule="evenodd" d="M6.98079 34.6924V31.9424C6.98079 31.4135 7.19233 30.8847 7.6154 30.4616C8.03848 30.0385 8.6731 29.827 9.30771 29.827C10.4712 29.827 11.4231 30.7789 11.5289 31.9424V34.6924H13.4327V31.9424C13.4327 31.4135 13.6443 30.8847 14.0673 30.4616C14.4904 30.0385 15.125 29.827 15.7596 29.827C16.0769 29.827 16.5 29.9328 16.8173 30.0385L17.5577 26.4424H3.1731V29.6155C3.1731 31.5193 3.59617 33.1058 4.23079 34.5866H6.98079V34.6924Z" fill="#B18147"/>
<path fill-rule="evenodd" clip-rule="evenodd" d="M8.14423 24.5384H8.99038C9.09615 24.6442 9.09615 24.7499 9.09615 24.8557C9.09615 24.9615 9.09615 24.9615 9.09615 25.0673C9.09615 25.2788 9.09615 25.3846 8.99038 25.5961H6.13461C5.71153 25.2788 5.5 24.2211 5.5 23.3749L6.76923 22.9519C6.98076 22.8461 7.08653 22.7403 7.08653 22.5288V22.1057C7.08653 21.8942 6.98076 21.7884 6.875 21.6826L5.5 20.7307V19.8846L5.92307 19.673C6.13461 19.5673 6.13461 19.4615 6.13461 19.2499V18.1923C6.13461 17.9807 6.02884 17.7692 5.8173 17.7692L5.39423 17.5576V16.7115H6.66346L7.40384 17.6634V19.0384L6.98076 20.3076C6.98076 20.4134 6.98076 20.6249 7.08653 20.7307C7.1923 20.8365 7.29807 20.9423 7.50961 20.9423H7.93269C8.14423 20.9423 8.35576 20.7307 8.46153 20.5192C8.46153 20.3076 8.5673 19.673 8.67307 19.3557C8.77884 19.1442 9.09615 18.7211 9.30769 18.4038C9.41346 18.1923 9.41346 17.9807 9.30769 17.7692L7.61538 15.8653C7.61538 15.548 7.50961 14.9134 7.61538 14.3846C7.72115 13.8557 8.14423 13.2211 8.25 13.0096C8.35576 12.9038 8.35576 12.798 8.35576 12.6923V12.4807H8.46153L10.4711 13.7499C10.5769 13.7499 10.6827 13.8557 10.6827 13.8557H11.2115V14.5961L10.5769 14.8076C10.3654 14.9134 10.2596 15.0192 10.2596 15.2307V15.7596C10.2596 16.0769 10.4711 16.2884 10.7885 16.2884H12.4808L12.9038 16.7115C13.1154 16.923 13.3269 16.923 13.5385 16.7115C13.5385 16.7115 14.2788 16.0769 14.3846 16.0769L14.7019 15.548H15.6538V16.7115V17.3461C15.6538 17.3461 13.8558 17.9807 13.75 17.9807C13.6442 18.0865 13.5385 18.6153 13.5385 18.7211C13.5385 18.8269 13.5385 18.9326 13.75 19.0384C13.75 19.0384 14.2788 19.4615 14.3846 19.4615L14.9135 18.9326H15.6538V20.6249L14.8077 21.1538L12.7981 19.7788C12.5865 19.673 12.2692 19.673 12.1635 19.8846L11.8461 20.3076C11.7404 20.5192 11.7404 20.8365 11.8461 20.9423L13.0096 21.9999V22.8461L11.8461 23.3749C11.6346 23.4807 11.5288 23.5865 11.5288 23.798V24.0096C11.5288 24.3269 11.7404 24.5384 12.0577 24.5384H13.4327C13.6442 24.8557 13.5385 25.2788 13.4327 25.4903H10.1538C10.0481 25.3846 9.9423 25.173 9.9423 24.9615C9.9423 24.8557 9.9423 24.8557 9.9423 24.7499C9.9423 24.4326 9.9423 24.1153 10.0481 23.9038L10.7885 22.9519C10.8942 22.8461 10.8942 22.7403 10.8942 22.6346V22.2115C10.8942 21.9999 10.7885 21.8942 10.6827 21.7884C10.5769 21.6826 10.3654 21.6826 10.2596 21.6826L8.99038 22.2115C8.77884 22.3173 8.67307 22.423 8.67307 22.6346V23.2692L7.93269 23.4807C7.72115 23.5865 7.61538 23.6923 7.61538 23.9038V24.1153C7.61538 24.3269 7.82692 24.5384 8.14423 24.5384Z" fill="#B18147"/>
<path fill-rule="evenodd" clip-rule="evenodd" d="M31.7308 24.5384H30.8846C30.7788 24.6442 30.7788 24.7499 30.7788 24.8557C30.7788 24.9615 30.7788 24.9615 30.7788 25.0673C30.7788 25.2788 30.7788 25.3846 30.8846 25.5961H33.6346C34.0577 25.2788 34.2692 24.2211 34.2692 23.3749L33 22.9519C32.7885 22.8461 32.6827 22.7403 32.6827 22.5288V22.1057C32.6827 21.8942 32.7885 21.7884 32.8942 21.6826L34.2692 20.7307V19.8846L33.8461 19.673C33.6346 19.5673 33.6346 19.4615 33.6346 19.2499V18.1923C33.6346 17.9807 33.7404 17.7692 33.9519 17.7692L34.375 17.5576V16.7115H33.1058L32.4711 17.6634V19.0384L32.8942 20.3076C32.8942 20.4134 32.8942 20.6249 32.7884 20.7307C32.6827 20.8365 32.5769 20.9423 32.3654 20.9423H31.9423C31.7308 20.9423 31.5192 20.7307 31.4135 20.5192C31.4135 20.3076 31.3077 19.673 31.2019 19.3557C31.0961 19.1442 30.7788 18.7211 30.5673 18.4038C30.4615 18.1923 30.4615 17.9807 30.5673 17.7692L32.2596 15.8653C32.2596 15.548 32.3654 14.9134 32.2596 14.3846C32.1538 13.8557 31.7308 13.2211 31.625 13.0096C31.5192 12.9038 31.5192 12.798 31.5192 12.6923V12.4807H31.4135L29.4038 13.7499C29.2981 13.7499 29.1923 13.8557 29.1923 13.8557H28.6634V14.5961L29.2981 14.8076C29.5096 14.9134 29.6154 15.0192 29.6154 15.2307V15.7596C29.6154 16.0769 29.4038 16.2884 29.0865 16.2884H27.3942L26.9711 16.7115C26.7596 16.923 26.5481 16.923 26.3365 16.7115C26.3365 16.7115 25.5961 16.0769 25.4904 16.0769L25.3846 15.548H24.4327V16.7115V17.3461C24.4327 17.3461 26.2308 17.9807 26.3365 17.9807C26.4423 18.0865 26.5481 18.6153 26.5481 18.7211C26.5481 18.8269 26.5481 18.9326 26.3365 19.0384C26.3365 19.0384 25.8077 19.4615 25.7019 19.4615L25.1731 18.9326H24.4327V20.6249L25.0673 21.048L27.0769 19.673C27.2884 19.5673 27.6058 19.5673 27.7115 19.7788L28.0288 20.2019C28.1346 20.4134 28.1346 20.7307 28.0288 20.8365L26.8654 21.8942V22.7403L28.0288 23.2692C28.2404 23.3749 28.3461 23.4807 28.3461 23.6923V23.9038C28.3461 24.2211 28.1346 24.4326 27.8173 24.4326H26.4423C26.2308 24.7499 26.3365 25.173 26.4423 25.3846H29.7211C29.8269 25.2788 29.9327 25.0673 29.9327 24.8557C29.9327 24.7499 29.9327 24.7499 29.9327 24.6442C29.9327 24.3269 29.9327 24.0096 29.8269 23.798L29.0865 22.8461C28.9808 22.7403 28.9808 22.6346 28.9808 22.5288V22.1057C28.9808 21.8942 29.0865 21.7884 29.1923 21.6826C29.2981 21.5769 29.5096 21.5769 29.6154 21.5769L30.8846 22.1057C31.0961 22.2115 31.2019 22.3173 31.2019 22.5288L31.3077 23.0576L32.0481 23.2692C32.2596 23.3749 32.3654 23.4807 32.3654 23.6923V23.9038C32.2596 24.3269 32.0481 24.5384 31.7308 24.5384Z" fill="#B18147"/>
<path fill-rule="evenodd" clip-rule="evenodd" d="M108.837 20.3078C108.837 18.4039 110.212 16.8174 112.221 16.8174C113.385 16.8174 114.125 17.1347 114.76 17.6635L114.231 18.1924C113.702 17.7693 113.173 17.452 112.115 17.452C110.635 17.452 109.577 18.7212 109.577 20.202C109.577 21.7885 110.635 23.0578 112.221 23.0578C112.962 23.0578 113.702 22.7405 114.231 22.4232V20.7308H112.115V20.0962H114.971V22.7405C114.337 23.2693 113.385 23.7982 112.221 23.7982C110.212 23.6924 108.837 22.2116 108.837 20.3078Z" fill="#8B1232"/>
<path fill-rule="evenodd" clip-rule="evenodd" d="M117.615 20.3078C117.615 18.4039 118.99 16.8174 121.106 16.8174C123.221 16.8174 124.596 18.4039 124.596 20.3078C124.596 22.2116 123.221 23.7982 121.106 23.7982C118.99 23.6924 117.615 22.1058 117.615 20.3078ZM123.75 20.3078C123.75 18.7212 122.587 17.452 121.106 17.452C119.519 17.452 118.462 18.7212 118.462 20.202C118.462 21.7885 119.625 22.952 121.106 22.952C122.587 23.0578 123.75 21.7885 123.75 20.3078Z" fill="#8B1232"/>
<path fill-rule="evenodd" clip-rule="evenodd" d="M127.24 16.8174H130.096C130.837 16.8174 131.471 17.0289 131.894 17.452C132.211 17.7693 132.317 18.0866 132.317 18.5097C132.317 19.3558 131.788 19.8847 131.26 20.0962C132.106 20.3078 132.74 20.8366 132.74 21.6828C132.74 22.8462 131.788 23.4808 130.308 23.4808H127.24V16.8174ZM131.577 18.6155C131.577 17.9808 131.048 17.5578 130.096 17.5578H127.981V19.8847H129.99C130.942 19.8847 131.577 19.4616 131.577 18.6155ZM130.202 20.5193H128.087V22.952H130.413C131.471 22.952 132.106 22.5289 132.106 21.7885C132 20.9424 131.365 20.5193 130.202 20.5193Z" fill="#8B1232"/>
<mask id="mask1_1_11856" style="mask-type:alpha" maskUnits="userSpaceOnUse" x="0" y="0" width="210" height="53">
<path fill-rule="evenodd" clip-rule="evenodd" d="M0 52.25H209.317V0H0V52.25Z" fill="white"/>
</mask>
<g mask="url(#mask1_1_11856)">
<path fill-rule="evenodd" clip-rule="evenodd" d="M135.49 23.5866H136.231V16.9231H135.49V23.5866Z" fill="#8B1232"/>
</g>
<mask id="mask2_1_11856" style="mask-type:alpha" maskUnits="userSpaceOnUse" x="0" y="0" width="210" height="53">
<path fill-rule="evenodd" clip-rule="evenodd" d="M0 52.25H209.317V0H0V52.25Z" fill="white"/>
</mask>
<g mask="url(#mask2_1_11856)">
<path fill-rule="evenodd" clip-rule="evenodd" d="M139.298 16.8174H144.269V17.5578H140.144V19.8847H143.846V20.5193H140.144V22.952H144.269V23.5866H139.298V16.8174Z" fill="#8B1232"/>
</g>
<mask id="mask3_1_11856" style="mask-type:alpha" maskUnits="userSpaceOnUse" x="0" y="0" width="210" height="53">
<path fill-rule="evenodd" clip-rule="evenodd" d="M0 52.25H209.317V0H0V52.25Z" fill="white"/>
</mask>
<g mask="url(#mask3_1_11856)">
<path fill-rule="evenodd" clip-rule="evenodd" d="M146.808 16.8174H149.769C150.615 16.8174 151.25 17.0289 151.673 17.452C151.99 17.7693 152.202 18.2982 152.202 18.827C152.202 19.9905 151.462 20.6251 150.404 20.8366L152.519 23.5866H151.567L149.558 20.9424H147.654V23.5866H146.913V16.8174H146.808ZM149.664 20.3078C150.721 20.3078 151.462 19.7789 151.462 18.9328C151.462 18.0866 150.827 17.5578 149.769 17.5578H147.654V20.3078H149.664Z" fill="#8B1232"/>
</g>
<mask id="mask4_1_11856" style="mask-type:alpha" maskUnits="userSpaceOnUse" x="0" y="0" width="210" height="53">
<path fill-rule="evenodd" clip-rule="evenodd" d="M0 52.25H209.317V0H0V52.25Z" fill="white"/>
</mask>
<g mask="url(#mask4_1_11856)">
<path fill-rule="evenodd" clip-rule="evenodd" d="M154.952 16.8174H155.692L160.029 22.3174V16.8174H160.769V23.5866H160.135L155.692 18.0866V23.5866H154.952V16.8174Z" fill="#8B1232"/>
</g>
<mask id="mask5_1_11856" style="mask-type:alpha" maskUnits="userSpaceOnUse" x="0" y="0" width="210" height="53">
<path fill-rule="evenodd" clip-rule="evenodd" d="M0 52.25H209.317V0H0V52.25Z" fill="white"/>
</mask>
<g mask="url(#mask5_1_11856)">
<path fill-rule="evenodd" clip-rule="evenodd" d="M163.519 20.3078C163.519 18.4039 164.894 16.8174 167.01 16.8174C169.125 16.8174 170.5 18.4039 170.5 20.3078C170.5 22.2116 169.125 23.7982 167.01 23.7982C164.894 23.6924 163.519 22.1058 163.519 20.3078ZM169.654 20.3078C169.654 18.7212 168.49 17.452 167.01 17.452C165.423 17.452 164.365 18.7212 164.365 20.202C164.365 21.7885 165.529 22.952 167.01 22.952C168.49 23.0578 169.654 21.7885 169.654 20.3078Z" fill="#8B1232"/>
</g>
<mask id="mask6_1_11856" style="mask-type:alpha" maskUnits="userSpaceOnUse" x="0" y="0" width="210" height="53">
<path fill-rule="evenodd" clip-rule="evenodd" d="M0 52.25H209.317V0H0V52.25Z" fill="white"/>
</mask>
<g mask="url(#mask6_1_11856)">
<path fill-rule="evenodd" clip-rule="evenodd" d="M176.635 16.8174H178.962C181.077 16.8174 182.558 18.2982 182.558 20.202C182.558 22.1058 181.077 23.5866 178.962 23.5866H176.635V16.8174ZM177.481 17.5578V22.952H179.067C180.76 22.952 181.923 21.7885 181.923 20.3078C181.923 18.827 180.865 17.6635 179.067 17.6635H177.481V17.5578Z" fill="#8B1232"/>
</g>
<mask id="mask7_1_11856" style="mask-type:alpha" maskUnits="userSpaceOnUse" x="0" y="0" width="210" height="53">
<path fill-rule="evenodd" clip-rule="evenodd" d="M0 52.25H209.317V0H0V52.25Z" fill="white"/>
</mask>
<g mask="url(#mask7_1_11856)">
<path fill-rule="evenodd" clip-rule="evenodd" d="M185.096 16.8174H189.962V17.5578H185.837V19.8847H189.539V20.5193H185.837V22.952H190.067V23.5866H185.096V16.8174Z" fill="#8B1232"/>
</g>
<mask id="mask8_1_11856" style="mask-type:alpha" maskUnits="userSpaceOnUse" x="0" y="0" width="210" height="53">
<path fill-rule="evenodd" clip-rule="evenodd" d="M0 52.25H209.317V0H0V52.25Z" fill="white"/>
</mask>
<g mask="url(#mask8_1_11856)">
<path fill-rule="evenodd" clip-rule="evenodd" d="M196.096 16.8174H196.942V22.952H200.75V23.5866H196.096V16.8174Z" fill="#8B1232"/>
</g>
<mask id="mask9_1_11856" style="mask-type:alpha" maskUnits="userSpaceOnUse" x="0" y="0" width="210" height="53">
<path fill-rule="evenodd" clip-rule="evenodd" d="M0 52.25H209.317V0H0V52.25Z" fill="white"/>
</mask>
<g mask="url(#mask9_1_11856)">
<path fill-rule="evenodd" clip-rule="evenodd" d="M205.404 16.8174H206.144L209.212 23.5866H208.365L207.519 21.7885H203.817L202.971 23.5866H202.231L205.404 16.8174ZM207.308 21.1539L205.721 17.7693L204.135 21.1539H207.308Z" fill="#8B1232"/>
</g>
<mask id="mask10_1_11856" style="mask-type:alpha" maskUnits="userSpaceOnUse" x="0" y="0" width="210" height="53">
<path fill-rule="evenodd" clip-rule="evenodd" d="M0 52.25H209.317V0H0V52.25Z" fill="white"/>
</mask>
<g mask="url(#mask10_1_11856)">
<path fill-rule="evenodd" clip-rule="evenodd" d="M108.731 31.8366C108.731 29.9327 110.212 28.3462 112.221 28.3462C113.49 28.3462 114.231 28.7693 114.865 29.4039L113.913 30.4616C113.385 30.0385 112.856 29.7212 112.221 29.7212C111.058 29.7212 110.212 30.6731 110.212 31.8366C110.212 33 111.058 33.952 112.221 33.952C112.962 33.952 113.49 33.6347 114.019 33.2116L114.971 34.1635C114.231 34.9039 113.49 35.327 112.221 35.327C110.212 35.327 108.731 33.7404 108.731 31.8366Z" fill="#8B1232"/>
</g>
<mask id="mask11_1_11856" style="mask-type:alpha" maskUnits="userSpaceOnUse" x="0" y="0" width="210" height="53">
<path fill-rule="evenodd" clip-rule="evenodd" d="M0 52.25H209.317V0H0V52.25Z" fill="white"/>
</mask>
<g mask="url(#mask11_1_11856)">
<path fill-rule="evenodd" clip-rule="evenodd" d="M116.24 35.2211H117.721V28.4519H116.24V35.2211Z" fill="#8B1232"/>
</g>
<mask id="mask12_1_11856" style="mask-type:alpha" maskUnits="userSpaceOnUse" x="0" y="0" width="210" height="53">
<path fill-rule="evenodd" clip-rule="evenodd" d="M0 52.25H209.317V0H0V52.25Z" fill="white"/>
</mask>
<g mask="url(#mask12_1_11856)">
<path fill-rule="evenodd" clip-rule="evenodd" d="M119.413 32.2596V28.4519H120.894V32.2596C120.894 33.3173 121.423 33.9519 122.375 33.9519C123.327 33.9519 123.856 33.4231 123.856 32.3654V28.4519H125.337V32.2596C125.337 34.2692 124.173 35.3269 122.375 35.3269C120.577 35.3269 119.413 34.2692 119.413 32.2596Z" fill="#8B1232"/>
</g>
<mask id="mask13_1_11856" style="mask-type:alpha" maskUnits="userSpaceOnUse" x="0" y="0" width="210" height="53">
<path fill-rule="evenodd" clip-rule="evenodd" d="M0 52.25H209.317V0H0V52.25Z" fill="white"/>
</mask>
<g mask="url(#mask13_1_11856)">
<path fill-rule="evenodd" clip-rule="evenodd" d="M127.029 28.4519H129.673C131.788 28.4519 133.269 29.9327 133.269 31.8365C133.269 33.7404 131.788 35.2211 129.673 35.2211H127.029V28.4519ZM129.673 33.8461C130.942 33.8461 131.683 33 131.683 31.8365C131.683 30.6731 130.837 29.8269 129.673 29.8269H128.51V33.8461H129.673Z" fill="#8B1232"/>
</g>
<mask id="mask14_1_11856" style="mask-type:alpha" maskUnits="userSpaceOnUse" x="0" y="0" width="210" height="53">
<path fill-rule="evenodd" clip-rule="evenodd" d="M0 52.25H209.317V0H0V52.25Z" fill="white"/>
</mask>
<g mask="url(#mask14_1_11856)">
<path fill-rule="evenodd" clip-rule="evenodd" d="M136.654 28.3462H138.029L140.99 35.1154H139.404L138.769 33.6347H135.913L135.279 35.1154H133.798L136.654 28.3462ZM138.24 32.3654L137.288 30.1443L136.337 32.3654H138.24Z" fill="#8B1232"/>
</g>
<mask id="mask15_1_11856" style="mask-type:alpha" maskUnits="userSpaceOnUse" x="0" y="0" width="210" height="53">
<path fill-rule="evenodd" clip-rule="evenodd" d="M0 52.25H209.317V0H0V52.25Z" fill="white"/>
</mask>
<g mask="url(#mask15_1_11856)">
<path fill-rule="evenodd" clip-rule="evenodd" d="M142.048 28.4519H144.692C146.808 28.4519 148.288 29.9327 148.288 31.8365C148.288 33.7404 146.808 35.2211 144.692 35.2211H142.048V28.4519ZM144.692 33.8461C145.962 33.8461 146.702 33 146.702 31.8365C146.702 30.6731 145.856 29.8269 144.692 29.8269H143.529V33.8461H144.692Z" fill="#8B1232"/>
</g>
<mask id="mask16_1_11856" style="mask-type:alpha" maskUnits="userSpaceOnUse" x="0" y="0" width="210" height="53">
<path fill-rule="evenodd" clip-rule="evenodd" d="M0 52.25H209.317V0H0V52.25Z" fill="white"/>
</mask>
<g mask="url(#mask16_1_11856)">
<path fill-rule="evenodd" clip-rule="evenodd" d="M152.625 28.4519H155.269C157.385 28.4519 158.865 29.9327 158.865 31.8365C158.865 33.7404 157.385 35.2211 155.269 35.2211H152.625V28.4519ZM155.269 33.8461C156.538 33.8461 157.279 33 157.279 31.8365C157.279 30.6731 156.433 29.8269 155.269 29.8269H154.106V33.8461H155.269Z" fill="#8B1232"/>
</g>
<mask id="mask17_1_11856" style="mask-type:alpha" maskUnits="userSpaceOnUse" x="0" y="0" width="210" height="53">
<path fill-rule="evenodd" clip-rule="evenodd" d="M0 52.25H209.317V0H0V52.25Z" fill="white"/>
</mask>
<g mask="url(#mask17_1_11856)">
<path fill-rule="evenodd" clip-rule="evenodd" d="M160.24 28.4519H165.423V29.7211H161.827V31.0961H165V32.4711H161.827V33.8461H165.423V35.2211H160.24V28.4519Z" fill="#8B1232"/>
</g>
<mask id="mask18_1_11856" style="mask-type:alpha" maskUnits="userSpaceOnUse" x="0" y="0" width="210" height="53">
<path fill-rule="evenodd" clip-rule="evenodd" d="M0 52.25H209.317V0H0V52.25Z" fill="white"/>
</mask>
<g mask="url(#mask18_1_11856)">
<path fill-rule="evenodd" clip-rule="evenodd" d="M169.76 28.4519H171.452L173.144 31.3077L174.942 28.4519H176.635V35.2211H175.154V30.7788L173.144 33.6346L171.24 30.7788V35.2211H169.76V28.4519Z" fill="#8B1232"/>
</g>
<mask id="mask19_1_11856" style="mask-type:alpha" maskUnits="userSpaceOnUse" x="0" y="0" width="210" height="53">
<path fill-rule="evenodd" clip-rule="evenodd" d="M0 52.25H209.317V0H0V52.25Z" fill="white"/>
</mask>
<g mask="url(#mask19_1_11856)">
<path fill-rule="evenodd" clip-rule="evenodd" d="M178.327 28.4519H183.404V29.7211H179.808V31.0961H182.981V32.3653H179.808V33.8461H183.51V35.1153H178.327V28.4519ZM181.183 26.2307L182.452 26.7596L181.183 27.923H180.019L181.183 26.2307Z" fill="#8B1232"/>
</g>
<mask id="mask20_1_11856" style="mask-type:alpha" maskUnits="userSpaceOnUse" x="0" y="0" width="210" height="53">
<path fill-rule="evenodd" clip-rule="evenodd" d="M0 52.25H209.317V0H0V52.25Z" fill="white"/>
</mask>
<g mask="url(#mask20_1_11856)">
<path fill-rule="evenodd" clip-rule="evenodd" d="M186.894 31.7307L184.567 28.4519H186.365L187.74 30.6731L189.221 28.4519H190.913L188.692 31.7307L191.019 35.2211H189.221L187.74 32.8942L186.154 35.2211H184.462L186.894 31.7307Z" fill="#8B1232"/>
</g>
<mask id="mask21_1_11856" style="mask-type:alpha" maskUnits="userSpaceOnUse" x="0" y="0" width="210" height="53">
<path fill-rule="evenodd" clip-rule="evenodd" d="M0 52.25H209.317V0H0V52.25Z" fill="white"/>
</mask>
<g mask="url(#mask21_1_11856)">
<path fill-rule="evenodd" clip-rule="evenodd" d="M192.183 35.2211H193.663V28.4519H192.183V35.2211Z" fill="#8B1232"/>
</g>
<mask id="mask22_1_11856" style="mask-type:alpha" maskUnits="userSpaceOnUse" x="0" y="0" width="210" height="53">
<path fill-rule="evenodd" clip-rule="evenodd" d="M0 52.25H209.317V0H0V52.25Z" fill="white"/>
</mask>
<g mask="url(#mask22_1_11856)">
<path fill-rule="evenodd" clip-rule="evenodd" d="M195.144 31.8366C195.144 29.9327 196.625 28.3462 198.635 28.3462C199.904 28.3462 200.644 28.7693 201.279 29.4039L200.327 30.4616C199.798 30.0385 199.269 29.7212 198.635 29.7212C197.471 29.7212 196.625 30.6731 196.625 31.8366C196.625 33 197.471 33.952 198.635 33.952C199.375 33.952 199.904 33.6347 200.433 33.2116L201.385 34.1635C200.644 34.9039 199.904 35.327 198.635 35.327C196.625 35.327 195.144 33.7404 195.144 31.8366Z" fill="#8B1232"/>
</g>
<mask id="mask23_1_11856" style="mask-type:alpha" maskUnits="userSpaceOnUse" x="0" y="0" width="210" height="53">
<path fill-rule="evenodd" clip-rule="evenodd" d="M0 52.25H209.317V0H0V52.25Z" fill="white"/>
</mask>
<g mask="url(#mask23_1_11856)">
<path fill-rule="evenodd" clip-rule="evenodd" d="M202.019 31.8366C202.019 29.9327 203.5 28.3462 205.615 28.3462C207.731 28.3462 209.212 29.9327 209.212 31.8366C209.212 33.7404 207.731 35.327 205.615 35.327C203.5 35.327 202.019 33.7404 202.019 31.8366ZM207.731 31.8366C207.731 30.6731 206.885 29.7212 205.721 29.7212C204.558 29.7212 203.712 30.6731 203.712 31.8366C203.712 33 204.558 33.952 205.721 33.952C206.885 33.952 207.731 33 207.731 31.8366Z" fill="#8B1232"/>
</g>
<path d="M306.202 19.3558V17.2405H297.317V19.3558H300.596V27.8174H302.923V19.3558H306.202ZM310.01 18.827V16.8174H307.577V18.827H310.01ZM310.01 27.9232V19.7789H307.683V27.9232H310.01ZM319.212 27.9232V23.1635C319.212 22.1058 318.894 21.1539 318.365 20.6251C317.837 19.9905 316.885 19.6732 315.615 19.6732C314.875 19.6732 314.346 19.7789 313.817 19.8847C313.288 19.9905 312.865 20.202 312.442 20.3078L312.971 22.1058C313.394 22.0001 313.712 21.8943 314.029 21.7885C314.346 21.6828 314.769 21.6828 315.192 21.6828C315.721 21.6828 316.25 21.7885 316.462 22.1058C316.779 22.3174 316.885 22.7405 316.885 23.2693C316.567 23.1635 316.25 23.0578 315.933 23.0578C315.615 22.952 315.298 22.952 314.875 22.952C314.346 22.952 313.923 23.0578 313.5 23.1635C313.077 23.2693 312.76 23.4808 312.442 23.6924C312.125 23.9039 312.125 24.0097 311.913 24.327C311.808 24.6443 311.702 24.9616 311.702 25.2789V25.4905C311.702 25.9135 311.808 26.2308 311.913 26.5482C312.019 26.8655 312.231 27.077 312.548 27.2885C312.76 27.5001 313.077 27.7116 313.394 27.8174C313.712 27.9232 314.135 28.0289 314.452 28.0289C314.981 28.0289 315.51 27.9232 315.933 27.7116C316.356 27.5001 316.673 27.2885 316.99 26.9712V27.8174H319.212V27.9232ZM316.99 25.0674C316.99 25.4905 316.779 25.8078 316.462 26.1251C316.144 26.3366 315.721 26.4424 315.192 26.4424C314.769 26.4424 314.558 26.3366 314.24 26.2308C314.029 26.1251 313.923 25.9135 313.923 25.5962V25.3847C313.923 25.0674 314.029 24.7501 314.346 24.5385C314.663 24.4328 314.981 24.327 315.51 24.327C315.827 24.327 316.038 24.327 316.356 24.4328C316.567 24.5385 316.779 24.5385 316.99 24.6443V25.0674ZM328.625 27.9232V22.6347C328.625 21.6828 328.413 20.9424 327.885 20.4135C327.356 19.8847 326.721 19.5674 325.875 19.5674C325.558 19.5674 325.346 19.5674 325.135 19.6732C324.923 19.7789 324.712 19.8847 324.5 19.9905C324.288 20.0962 324.183 20.202 323.971 20.4135C323.865 20.5193 323.654 20.7308 323.548 20.9424V19.7789H321.221V27.9232H323.548V23.3751C323.548 22.8462 323.654 22.4232 323.971 22.1058C324.183 21.7885 324.606 21.6828 325.029 21.6828C325.452 21.6828 325.769 21.7885 326.087 22.1058C326.298 22.4232 326.404 22.8462 326.404 23.3751V27.9232H328.625ZM338.885 26.0193V19.6732H336.558V20.7308C336.24 20.4135 335.923 20.0962 335.5 19.8847C335.077 19.6732 334.548 19.5674 333.913 19.5674C333.49 19.5674 332.962 19.6732 332.538 19.7789C332.115 19.9905 331.692 20.202 331.375 20.5193C331.058 20.8366 330.74 21.2597 330.529 21.6828C330.317 22.1058 330.212 22.5289 330.212 23.0578V23.3751C330.212 24.0097 330.317 24.5385 330.529 24.9616C330.74 25.3847 330.952 25.8078 331.375 26.1251C331.798 26.4424 332.115 26.6539 332.538 26.8655C332.962 27.077 333.385 27.077 333.913 27.077C334.548 27.077 335.077 26.9712 335.5 26.7597C335.923 26.5482 336.24 26.2308 336.663 25.8078V26.2308C336.663 26.9712 336.452 27.5001 336.135 27.9232C335.817 28.3462 335.077 28.5578 334.231 28.5578C333.702 28.5578 333.173 28.452 332.75 28.3462C332.327 28.2405 331.904 28.0289 331.481 27.8174L330.74 29.5097C331.269 29.827 331.798 30.0385 332.433 30.1443C333.067 30.2501 333.702 30.3558 334.337 30.3558C335.077 30.3558 335.712 30.2501 336.346 30.1443C336.981 30.0385 337.404 29.7212 337.721 29.4039C338.144 29.0866 338.356 28.6635 338.567 28.0289C338.779 27.5001 338.885 26.8655 338.885 26.0193ZM336.558 23.3751C336.558 23.6924 336.558 23.9039 336.452 24.1155C336.346 24.327 336.24 24.5385 336.029 24.7501C335.817 24.9616 335.606 25.0674 335.394 25.1732C335.183 25.2789 334.865 25.2789 334.654 25.2789C334.125 25.2789 333.596 25.0674 333.279 24.7501C332.962 24.4328 332.75 24.0097 332.75 23.5866V23.3751C332.75 23.0578 332.75 22.8462 332.856 22.6347C332.962 22.4232 332.962 22.2116 333.173 22.0001C333.385 21.7885 333.596 21.6828 333.808 21.577C334.019 21.4712 334.337 21.4712 334.548 21.4712C334.76 21.4712 335.077 21.4712 335.288 21.577C335.5 21.6828 335.712 21.7885 335.923 22.0001C336.24 22.2116 336.346 22.4232 336.452 22.6347C336.558 22.8462 336.558 22.952 336.558 23.1635V23.3751ZM348.298 27.9232V19.7789H345.971V24.327C345.971 24.8558 345.865 25.2789 345.548 25.5962C345.231 25.9135 344.913 26.0193 344.49 26.0193C344.067 26.0193 343.75 25.9135 343.433 25.5962C343.115 25.2789 343.221 24.8558 343.221 24.327V19.7789H340.894V25.0674C340.894 26.0193 341.106 26.7597 341.635 27.2885C342.163 27.8174 342.798 28.1347 343.644 28.1347C343.962 28.1347 344.173 28.1347 344.385 28.0289C344.596 27.9232 344.808 27.8174 345.019 27.7116C345.231 27.6058 345.336 27.5001 345.548 27.2885C345.654 27.1828 345.865 26.9712 345.971 26.7597V27.9232H348.298ZM352.952 18.827V16.8174H350.519V18.827H352.952ZM352.846 27.9232V19.7789H350.519V27.9232H352.846ZM360.99 25.3847C360.99 25.8078 360.885 26.2308 360.779 26.5482C360.673 26.8655 360.356 27.1828 360.144 27.3943C359.933 27.6058 359.51 27.8174 359.192 27.9232C358.875 28.0289 358.452 28.1347 357.923 28.1347C357.394 28.1347 356.76 28.0289 356.125 27.8174C355.49 27.6058 354.961 27.2885 354.327 26.7597L355.385 25.2789C355.808 25.5962 356.231 25.8078 356.76 26.0193C357.288 26.2308 357.606 26.2308 358.029 26.2308C358.346 26.2308 358.558 26.1251 358.769 26.0193C358.875 25.9135 358.981 25.8078 358.981 25.5962C358.981 25.4905 358.981 25.3847 358.875 25.2789C358.769 25.1732 358.663 25.0674 358.452 25.0674C358.346 25.0674 358.24 24.9616 358.135 24.9616L357.288 24.7501C356.971 24.6443 356.76 24.5385 356.442 24.4328C356.125 24.327 355.913 24.1155 355.702 24.0097C355.49 23.9039 355.173 23.4808 354.961 23.2693C354.856 23.0578 354.75 22.7405 354.75 22.4232V22.2116C354.75 21.7885 354.856 21.4712 354.961 21.1539C355.067 20.8366 355.385 20.5193 355.596 20.3078C355.913 20.0962 356.231 19.8847 356.548 19.7789C356.865 19.6732 357.288 19.5674 357.711 19.5674C358.24 19.5674 358.769 19.6732 359.298 19.7789C359.827 19.9905 360.356 20.202 360.779 20.5193L359.933 22.1058C359.51 21.8943 359.086 21.6828 358.769 21.577C358.346 21.4712 358.029 21.3655 357.711 21.3655C357.394 21.3655 357.183 21.4712 357.077 21.577C356.971 21.6828 356.865 21.7885 356.865 22.0001C356.865 22.1058 356.865 22.2116 356.971 22.3174C357.077 22.4232 357.183 22.5289 357.288 22.5289C357.394 22.6347 357.606 22.6347 357.817 22.7405L358.24 22.8462C358.346 22.8462 358.346 22.8462 358.452 22.952C358.769 23.0578 358.981 23.1635 359.298 23.2693C359.615 23.3751 359.827 23.5866 360.038 23.6924C360.25 23.9039 360.461 24.1155 360.567 24.327C360.673 24.5385 360.779 24.8558 360.779 25.0674L360.99 25.3847Z" fill="#8B1232"/>
<path d="M307.894 38.3942C307.894 37.6538 307.788 36.9134 307.471 36.2788C307.154 35.6442 306.837 35.1153 306.308 34.5865C305.779 34.0576 305.25 33.7403 304.51 33.423C303.875 33.2115 303.135 33.1057 302.288 33.1057H298.058V43.7884H302.183C303.029 43.7884 303.769 43.6826 304.51 43.3653C305.25 43.048 305.779 42.7307 306.308 42.2018C306.837 41.673 307.154 41.1442 307.471 40.5095C307.788 39.8749 307.894 39.1345 307.894 38.3942ZM305.462 38.4999C305.462 39.0288 305.356 39.4518 305.25 39.7692C305.144 40.0865 304.827 40.5095 304.615 40.7211C304.298 41.0384 303.981 41.2499 303.558 41.3557C303.135 41.4615 302.712 41.5672 302.288 41.5672H300.49V35.2211H302.288C302.817 35.2211 303.24 35.3268 303.558 35.4326C303.981 35.5384 304.298 35.8557 304.615 36.0672C304.933 36.3845 305.144 36.7018 305.25 37.1249C305.356 37.4422 305.462 37.7595 305.462 38.1826V38.4999ZM312.231 34.6922V32.6826H309.798V34.6922H312.231ZM312.231 43.7884V35.6442H309.904V43.7884H312.231ZM322.596 41.8845V35.5384H320.269V36.5961C319.952 36.2788 319.635 35.9615 319.212 35.7499C318.788 35.5384 318.26 35.4326 317.625 35.4326C317.202 35.4326 316.673 35.5384 316.25 35.6442C315.827 35.8557 315.404 36.0672 315.087 36.3845C314.769 36.7018 314.452 37.1249 314.24 37.548C314.029 37.9711 313.923 38.3942 313.923 38.923V39.2403C313.923 39.8749 314.029 40.4038 314.24 40.8268C314.452 41.2499 314.663 41.673 315.087 41.9903C315.51 42.3076 315.827 42.5192 316.25 42.7307C316.673 42.9422 317.096 42.9422 317.625 42.9422C318.26 42.9422 318.788 42.8365 319.212 42.6249C319.635 42.4134 319.952 42.0961 320.375 41.673V42.0961C320.375 42.8365 320.163 43.3653 319.846 43.7884C319.423 44.2115 318.894 44.3172 318.048 44.3172C317.519 44.3172 316.99 44.2115 316.567 44.1057C316.144 43.9999 315.721 43.7884 315.298 43.5768L314.558 45.2692C315.087 45.5865 315.615 45.798 316.25 45.9038C316.885 46.0095 317.519 46.1153 318.154 46.1153C318.894 46.1153 319.529 46.0095 320.163 45.9038C320.692 45.6922 321.221 45.4807 321.538 45.1634C321.962 44.8461 322.173 44.423 322.385 43.7884C322.596 43.1538 322.596 42.7307 322.596 41.8845ZM320.269 39.2403C320.269 39.5576 320.269 39.7692 320.163 39.9807C320.058 40.1922 319.952 40.4038 319.74 40.6153C319.529 40.8268 319.317 40.9326 319.106 41.0384C318.894 41.1442 318.577 41.1442 318.365 41.1442C317.837 41.1442 317.308 40.9326 316.99 40.6153C316.673 40.298 316.462 39.8749 316.462 39.4518V39.2403C316.462 38.923 316.462 38.7115 316.567 38.4999C316.673 38.2884 316.779 38.0768 316.99 37.8653C317.202 37.6538 317.413 37.548 317.625 37.4422C317.837 37.3365 318.154 37.3365 318.365 37.3365C318.577 37.3365 318.894 37.3365 319.106 37.4422C319.317 37.548 319.529 37.6538 319.74 37.8653C319.952 38.0768 320.058 38.1826 320.163 38.4999C320.269 38.7115 320.269 38.8172 320.269 39.0288V39.2403ZM327.144 34.6922V32.6826H324.712V34.6922H327.144ZM327.038 43.7884V35.6442H324.712V43.7884H327.038ZM333.808 43.4711V41.5672C333.49 41.7788 333.067 41.8845 332.644 41.8845C332.115 41.8845 331.904 41.673 331.904 41.1442V37.548H333.808V35.6442H331.904V33.5288H329.577V35.6442H328.625V37.6538H329.577V41.5672C329.577 42.0961 329.683 42.4134 329.788 42.7307C329.894 43.048 330.106 43.2595 330.317 43.4711C330.529 43.6826 330.74 43.7884 331.058 43.8942C331.375 43.9999 331.692 43.9999 332.01 43.9999C332.433 43.9999 332.75 43.9999 333.067 43.8942C333.279 43.6826 333.596 43.5768 333.808 43.4711ZM342.587 43.7884V39.0288C342.587 37.9711 342.269 37.0192 341.74 36.4903C341.212 35.8557 340.26 35.5384 338.99 35.5384C338.25 35.5384 337.721 35.6442 337.192 35.7499C336.663 35.8557 336.24 36.0672 335.817 36.173L336.346 37.9711C336.769 37.8653 337.087 37.7595 337.404 37.6538C337.721 37.548 338.144 37.548 338.567 37.548C339.096 37.548 339.625 37.6538 339.837 37.9711C340.048 38.2884 340.26 38.6057 340.26 39.1345C339.942 39.0288 339.625 38.923 339.308 38.923C338.99 38.923 338.673 38.8172 338.25 38.8172C337.721 38.8172 337.298 38.923 336.875 39.0288C336.452 39.1345 336.135 39.3461 335.817 39.5576C335.5 39.7692 335.288 40.0865 335.183 40.4038C335.077 40.7211 334.971 41.0384 334.971 41.3557V41.5672C334.971 41.9903 335.077 42.3076 335.183 42.6249C335.288 42.9422 335.5 43.1538 335.817 43.3653C336.029 43.5768 336.346 43.7884 336.663 43.8942C336.981 43.9999 337.404 44.1057 337.721 44.1057C338.25 44.1057 338.779 43.9999 339.202 43.7884C339.625 43.5768 339.942 43.3653 340.26 43.048V43.8942H342.587V43.7884ZM340.365 40.9326C340.365 41.3557 340.154 41.673 339.837 41.9903C339.519 42.2018 339.096 42.3076 338.567 42.3076C338.144 42.3076 337.933 42.2018 337.615 42.0961C337.404 41.9903 337.298 41.7788 337.298 41.4615V41.2499C337.298 40.9326 337.404 40.6153 337.721 40.4038C338.038 40.1922 338.356 40.0865 338.885 40.0865C339.202 40.0865 339.413 40.0865 339.731 40.1922C340.048 40.298 340.154 40.298 340.365 40.4038V40.9326ZM347.029 43.7884H344.702V32.6826H347.029V43.7884Z" fill="#8B1232"/>
<mask id="mask24_1_11856" style="mask-type:alpha" maskUnits="userSpaceOnUse" x="248" y="8" width="44" height="44">
<path fill-rule="evenodd" clip-rule="evenodd" d="M248.558 29.8268C248.558 41.5672 258.077 51.1922 269.923 51.1922C281.663 51.1922 291.288 41.673 291.288 29.8268C291.183 17.9807 281.663 8.46143 269.923 8.46143C258.077 8.46143 248.558 17.9807 248.558 29.8268Z" fill="white"/>
</mask>
<g mask="url(#mask24_1_11856)">
<path fill-rule="evenodd" clip-rule="evenodd" d="M239.673 51.4039H296.26V7.19238H239.673V51.4039Z" fill="#EDEDED"/>
</g>
<mask id="mask25_1_11856" style="mask-type:alpha" maskUnits="userSpaceOnUse" x="248" y="8" width="44" height="44">
<path fill-rule="evenodd" clip-rule="evenodd" d="M248.558 29.8268C248.558 41.5672 258.077 51.1922 269.923 51.1922C281.663 51.1922 291.288 41.673 291.288 29.8268C291.183 17.9807 281.663 8.46143 269.923 8.46143C258.077 8.46143 248.558 17.9807 248.558 29.8268Z" fill="white"/>
</mask>
<g mask="url(#mask25_1_11856)">
<path fill-rule="evenodd" clip-rule="evenodd" d="M266.962 18.5097H270.769C270.769 18.827 270.769 19.25 270.875 19.5673H266.856C266.856 19.25 266.962 18.9327 266.962 18.5097ZM277.644 36.702C277.538 36.3847 277.538 35.9616 277.433 35.6443H280.923C281.029 35.9616 281.135 36.3847 281.24 36.702H277.644ZM269.077 9.30773H270.135C270.135 9.62504 270.135 9.94235 270.24 10.3654H268.971C269.077 9.94235 269.077 9.62504 269.077 9.30773ZM276.375 51.827H296.154C294.99 50.6635 294.25 48.7597 293.51 47.2789C292.452 45.1635 291.288 43.0481 290.231 40.9327H291.923C290.442 38.1827 288.856 35.4327 287.375 32.6827H285.048C284.837 32.2597 284.731 31.8366 284.519 31.4135H286.74C284.731 27.7116 282.721 24.0097 280.712 20.4135C280.5 20.0962 280.394 19.7789 280.183 19.4616C280.077 19.25 279.971 19.1443 279.865 18.9327C278.49 16.5 277.115 14.0673 275.846 11.6347H274.788C275.635 13.5385 276.375 15.5481 277.221 17.452H277.01C276.163 15.125 275.212 12.6923 274.154 10.4712H275C273.942 8.35581 273.519 7.72119 273.202 7.72119H271.298H271.404H267.596C267.49 7.82696 267.49 7.93273 267.385 8.14427H267.067C267.173 8.0385 267.279 7.82696 267.279 7.72119H265.481C264.423 9.30773 263.577 10.8943 262.731 12.4808H262.837C261.779 14.4904 260.615 16.5 259.558 18.4039H261.25C260.615 19.7789 260.087 21.2597 259.558 22.6347H257.231C255.538 25.702 253.846 28.875 252.154 31.9423H255.644C255.538 32.2597 255.433 32.577 255.327 32.7885H251.625C250.25 35.327 248.875 37.9712 247.394 40.5097H247.288C245.49 43.6827 243.798 46.8558 242 50.0289H246.76C248.135 47.3847 249.404 44.6347 250.567 41.7789H252.365C252.683 40.9327 253.106 39.9808 253.423 39.1347H253.846C253.317 40.5097 252.788 41.7789 252.26 43.0481H251.625C250.885 44.8462 250.144 46.75 249.298 48.5481H263.154C263.471 46.75 263.683 44.8462 263.894 43.0481H261.462C261.673 41.7789 261.885 40.4039 262.202 39.1347H264.423C265.058 34.1635 265.587 29.2981 266.221 24.327H267.913C267.808 26.9712 267.596 29.6154 267.49 32.2597H266.221C265.798 36.702 265.375 41.25 264.952 45.6923H268.548C268.548 46.6443 268.548 47.702 268.442 48.6539H275.529C275.635 49.077 275.74 49.6058 275.846 50.0289H262.837C262.942 49.8173 262.942 49.5 263.048 49.2885H252.683C251.625 51.2981 251.308 51.827 250.779 51.827H261.885H261.99H276.375Z" fill="#555555"/>
</g>
<mask id="mask26_1_11856" style="mask-type:alpha" maskUnits="userSpaceOnUse" x="248" y="8" width="44" height="44">
<path fill-rule="evenodd" clip-rule="evenodd" d="M248.558 29.8268C248.558 41.5672 258.077 51.1922 269.923 51.1922C281.663 51.1922 291.288 41.673 291.288 29.8268C291.183 17.9807 281.663 8.46143 269.923 8.46143C258.077 8.46143 248.558 17.9807 248.558 29.8268Z" fill="white"/>
</mask>
<g mask="url(#mask26_1_11856)">
<path fill-rule="evenodd" clip-rule="evenodd" d="M260.615 43.0482H251.731C252.471 41.1443 253.212 39.2405 253.952 37.4424H261.779C261.356 39.3462 261.038 41.2501 260.615 43.0482Z" fill="#899396"/>
</g>
<mask id="mask27_1_11856" style="mask-type:alpha" maskUnits="userSpaceOnUse" x="248" y="8" width="44" height="44">
<path fill-rule="evenodd" clip-rule="evenodd" d="M248.558 29.8268C248.558 41.5672 258.077 51.1922 269.923 51.1922C281.663 51.1922 291.288 41.673 291.288 29.8268C291.183 17.9807 281.663 8.46143 269.923 8.46143C258.077 8.46143 248.558 17.9807 248.558 29.8268Z" fill="white"/>
</mask>
<g mask="url(#mask27_1_11856)">
<path fill-rule="evenodd" clip-rule="evenodd" d="M267.279 6.66357H265.481C264.529 8.14434 263.683 9.83665 262.731 11.4232H265.481C266.01 9.94242 266.433 8.03857 267.279 6.66357Z" fill="#FFF0FA"/>
</g>
<mask id="mask28_1_11856" style="mask-type:alpha" maskUnits="userSpaceOnUse" x="248" y="8" width="44" height="44">
<path fill-rule="evenodd" clip-rule="evenodd" d="M248.558 29.8268C248.558 41.5672 258.077 51.1922 269.923 51.1922C281.663 51.1922 291.288 41.673 291.288 29.8268C291.183 17.9807 281.663 8.46143 269.923 8.46143C258.077 8.46143 248.558 17.9807 248.558 29.8268Z" fill="white"/>
</mask>
<g mask="url(#mask28_1_11856)">
<path fill-rule="evenodd" clip-rule="evenodd" d="M267.279 47.596H279.019C278.702 46.0095 278.385 44.423 278.067 42.8364H267.596C267.385 44.423 267.385 46.0095 267.279 47.596Z" fill="#6C8BBE"/>
</g>
<mask id="mask29_1_11856" style="mask-type:alpha" maskUnits="userSpaceOnUse" x="248" y="8" width="44" height="44">
<path fill-rule="evenodd" clip-rule="evenodd" d="M248.558 29.8268C248.558 41.5672 258.077 51.1922 269.923 51.1922C281.663 51.1922 291.288 41.673 291.288 29.8268C291.183 17.9807 281.663 8.46143 269.923 8.46143C258.077 8.46143 248.558 17.9807 248.558 29.8268Z" fill="white"/>
</mask>
<g mask="url(#mask29_1_11856)">
<path fill-rule="evenodd" clip-rule="evenodd" d="M291.606 39.6636H281.24C280.5 36.9136 279.76 34.1636 279.019 31.4136H287.164C288.644 34.1636 290.125 36.9136 291.606 39.6636Z" fill="#407EA1"/>
</g>
<mask id="mask30_1_11856" style="mask-type:alpha" maskUnits="userSpaceOnUse" x="248" y="8" width="44" height="44">
<path fill-rule="evenodd" clip-rule="evenodd" d="M248.558 29.8268C248.558 41.5672 258.077 51.1922 269.923 51.1922C281.663 51.1922 291.288 41.673 291.288 29.8268C291.183 17.9807 281.663 8.46143 269.923 8.46143C258.077 8.46143 248.558 17.9807 248.558 29.8268Z" fill="white"/>
</mask>
<g mask="url(#mask30_1_11856)">
<path fill-rule="evenodd" clip-rule="evenodd" d="M262.202 47.5962H249.087C249.933 45.7982 250.673 43.8943 251.519 41.9905H263.154C262.837 43.8943 262.519 45.6924 262.202 47.5962Z" fill="#90D277"/>
</g>
<mask id="mask31_1_11856" style="mask-type:alpha" maskUnits="userSpaceOnUse" x="248" y="8" width="44" height="44">
<path fill-rule="evenodd" clip-rule="evenodd" d="M248.558 29.8268C248.558 41.5672 258.077 51.1922 269.923 51.1922C281.663 51.1922 291.288 41.673 291.288 29.8268C291.183 17.9807 281.663 8.46143 269.923 8.46143C258.077 8.46143 248.558 17.9807 248.558 29.8268Z" fill="white"/>
</mask>
<g mask="url(#mask31_1_11856)">
<path fill-rule="evenodd" clip-rule="evenodd" d="M273.096 6.66357H271.192C271.404 6.66357 271.51 7.29819 272.038 9.41357H274.788C273.731 7.29819 273.413 6.66357 273.096 6.66357Z" fill="#769EC3"/>
</g>
<mask id="mask32_1_11856" style="mask-type:alpha" maskUnits="userSpaceOnUse" x="248" y="8" width="44" height="44">
<path fill-rule="evenodd" clip-rule="evenodd" d="M248.558 29.8268C248.558 41.5672 258.077 51.1922 269.923 51.1922C281.663 51.1922 291.288 41.673 291.288 29.8268C291.183 17.9807 281.663 8.46143 269.923 8.46143C258.077 8.46143 248.558 17.9807 248.558 29.8268Z" fill="white"/>
</mask>
<g mask="url(#mask32_1_11856)">
<path fill-rule="evenodd" clip-rule="evenodd" d="M278.173 44.6346H264C264.529 40.1923 265.058 35.75 265.587 31.2019H275.846C276.587 35.6442 277.327 40.1923 278.173 44.6346Z" fill="#9FDA8F"/>
</g>
<mask id="mask33_1_11856" style="mask-type:alpha" maskUnits="userSpaceOnUse" x="248" y="8" width="44" height="44">
<path fill-rule="evenodd" clip-rule="evenodd" d="M248.558 29.8268C248.558 41.5672 258.077 51.1922 269.923 51.1922C281.663 51.1922 291.288 41.673 291.288 29.8268C291.183 17.9807 281.663 8.46143 269.923 8.46143C258.077 8.46143 248.558 17.9807 248.558 29.8268Z" fill="white"/>
</mask>
<g mask="url(#mask33_1_11856)">
<path fill-rule="evenodd" clip-rule="evenodd" d="M273.096 7.72119H269.923C270.135 11.8462 270.24 15.8654 270.346 19.9904H277.75C276.375 15.8654 275 11.6347 273.096 7.72119Z" fill="#F5DDEA"/>
</g>
<mask id="mask34_1_11856" style="mask-type:alpha" maskUnits="userSpaceOnUse" x="248" y="8" width="44" height="44">
<path fill-rule="evenodd" clip-rule="evenodd" d="M248.558 29.8268C248.558 41.5672 258.077 51.1922 269.923 51.1922C281.663 51.1922 291.288 41.673 291.288 29.8268C291.183 17.9807 281.663 8.46143 269.923 8.46143C258.077 8.46143 248.558 17.9807 248.558 29.8268Z" fill="white"/>
</mask>
<g mask="url(#mask34_1_11856)">
<path fill-rule="evenodd" clip-rule="evenodd" d="M277.856 30.1443H267.385C267.596 26.8655 267.913 23.5867 268.125 20.4136H275.74C276.375 23.6924 277.115 26.8655 277.856 30.1443Z" fill="#8FD479"/>
</g>
<mask id="mask35_1_11856" style="mask-type:alpha" maskUnits="userSpaceOnUse" x="248" y="8" width="44" height="44">
<path fill-rule="evenodd" clip-rule="evenodd" d="M248.558 29.8268C248.558 41.5672 258.077 51.1922 269.923 51.1922C281.663 51.1922 291.288 41.673 291.288 29.8268C291.183 17.9807 281.663 8.46143 269.923 8.46143C258.077 8.46143 248.558 17.9807 248.558 29.8268Z" fill="white"/>
</mask>
<g mask="url(#mask35_1_11856)">
<path fill-rule="evenodd" clip-rule="evenodd" d="M266.01 18.4038H273.625C273.942 19.9903 274.154 21.6827 274.471 23.2692H265.163C265.481 21.6827 265.692 20.0961 266.01 18.4038Z" fill="#C7BAB7"/>
</g>
<mask id="mask36_1_11856" style="mask-type:alpha" maskUnits="userSpaceOnUse" x="248" y="8" width="44" height="44">
<path fill-rule="evenodd" clip-rule="evenodd" d="M248.558 29.8268C248.558 41.5672 258.077 51.1922 269.923 51.1922C281.663 51.1922 291.288 41.673 291.288 29.8268C291.183 17.9807 281.663 8.46143 269.923 8.46143C258.077 8.46143 248.558 17.9807 248.558 29.8268Z" fill="white"/>
</mask>
<g mask="url(#mask36_1_11856)">
<path fill-rule="evenodd" clip-rule="evenodd" d="M277.75 16.2886H271.51C272.038 22.3174 272.673 28.3463 273.202 34.3751H285.365C282.933 28.3463 280.394 22.3174 277.75 16.2886Z" fill="#7ACB61"/>
</g>
<mask id="mask37_1_11856" style="mask-type:alpha" maskUnits="userSpaceOnUse" x="248" y="8" width="44" height="44">
<path fill-rule="evenodd" clip-rule="evenodd" d="M248.558 29.8268C248.558 41.5672 258.077 51.1922 269.923 51.1922C281.663 51.1922 291.288 41.673 291.288 29.8268C291.183 17.9807 281.663 8.46143 269.923 8.46143C258.077 8.46143 248.558 17.9807 248.558 29.8268Z" fill="white"/>
</mask>
<g mask="url(#mask37_1_11856)">
<path fill-rule="evenodd" clip-rule="evenodd" d="M281.346 28.3461H286.952C284.519 24.3268 282.087 20.2018 279.548 16.1826H276.692C278.279 20.2018 279.76 24.3268 281.346 28.3461Z" fill="#FECE7D"/>
</g>
<mask id="mask38_1_11856" style="mask-type:alpha" maskUnits="userSpaceOnUse" x="248" y="8" width="44" height="44">
<path fill-rule="evenodd" clip-rule="evenodd" d="M248.558 29.8268C248.558 41.5672 258.077 51.1922 269.923 51.1922C281.663 51.1922 291.288 41.673 291.288 29.8268C291.183 17.9807 281.663 8.46143 269.923 8.46143C258.077 8.46143 248.558 17.9807 248.558 29.8268Z" fill="white"/>
</mask>
<g mask="url(#mask38_1_11856)">
<path fill-rule="evenodd" clip-rule="evenodd" d="M275.846 10.2595H272.567C273.414 13.1153 274.154 15.9711 274.894 18.8268H280.606C279.019 15.9711 277.433 13.1153 275.846 10.2595Z" fill="#FF9B8F"/>
</g>
<mask id="mask39_1_11856" style="mask-type:alpha" maskUnits="userSpaceOnUse" x="248" y="8" width="44" height="44">
<path fill-rule="evenodd" clip-rule="evenodd" d="M248.558 29.8268C248.558 41.5672 258.077 51.1922 269.923 51.1922C281.663 51.1922 291.288 41.673 291.288 29.8268C291.183 17.9807 281.663 8.46143 269.923 8.46143C258.077 8.46143 248.558 17.9807 248.558 29.8268Z" fill="white"/>
</mask>
<g mask="url(#mask39_1_11856)">
<path fill-rule="evenodd" clip-rule="evenodd" d="M271.192 17.3461H266.221C266.644 14.5961 267.173 11.8461 267.702 9.2019H270.558C270.769 11.9519 270.981 14.7019 271.192 17.3461Z" fill="#00BEEA"/>
</g>
<mask id="mask40_1_11856" style="mask-type:alpha" maskUnits="userSpaceOnUse" x="248" y="8" width="44" height="44">
<path fill-rule="evenodd" clip-rule="evenodd" d="M248.558 29.8268C248.558 41.5672 258.077 51.1922 269.923 51.1922C281.663 51.1922 291.288 41.673 291.288 29.8268C291.183 17.9807 281.663 8.46143 269.923 8.46143C258.077 8.46143 248.558 17.9807 248.558 29.8268Z" fill="white"/>
</mask>
<g mask="url(#mask40_1_11856)">
<path fill-rule="evenodd" clip-rule="evenodd" d="M268.337 16.2884H262.096C263.365 13.221 264.423 9.9422 266.115 7.08643H269.077C268.654 10.1537 268.548 13.221 268.337 16.2884Z" fill="#4292BE"/>
</g>
<mask id="mask41_1_11856" style="mask-type:alpha" maskUnits="userSpaceOnUse" x="248" y="8" width="44" height="44">
<path fill-rule="evenodd" clip-rule="evenodd" d="M248.558 29.8268C248.558 41.5672 258.077 51.1922 269.923 51.1922C281.663 51.1922 291.288 41.673 291.288 29.8268C291.183 17.9807 281.663 8.46143 269.923 8.46143C258.077 8.46143 248.558 17.9807 248.558 29.8268Z" fill="white"/>
</mask>
<g mask="url(#mask41_1_11856)">
<path fill-rule="evenodd" clip-rule="evenodd" d="M247.606 39.3462H251.202C249.721 42.625 248.346 45.9039 246.654 48.9712H242.212C244.01 45.7981 245.808 42.625 247.606 39.3462Z" fill="#67506A"/>
</g>
<mask id="mask42_1_11856" style="mask-type:alpha" maskUnits="userSpaceOnUse" x="248" y="8" width="44" height="44">
<path fill-rule="evenodd" clip-rule="evenodd" d="M248.558 29.8268C248.558 41.5672 258.077 51.1922 269.923 51.1922C281.663 51.1922 291.288 41.673 291.288 29.8268C291.183 17.9807 281.663 8.46143 269.923 8.46143C258.077 8.46143 248.558 17.9807 248.558 29.8268Z" fill="white"/>
</mask>
<g mask="url(#mask42_1_11856)">
<path fill-rule="evenodd" clip-rule="evenodd" d="M252.26 40.7211H246.971C248.663 37.6538 250.25 34.6923 251.942 31.625H255.962C254.692 34.6923 253.423 37.6538 252.26 40.7211Z" fill="#D3C6C8"/>
</g>
<mask id="mask43_1_11856" style="mask-type:alpha" maskUnits="userSpaceOnUse" x="248" y="8" width="44" height="44">
<path fill-rule="evenodd" clip-rule="evenodd" d="M248.558 29.8268C248.558 41.5672 258.077 51.1922 269.923 51.1922C281.663 51.1922 291.288 41.673 291.288 29.8268C291.183 17.9807 281.663 8.46143 269.923 8.46143C258.077 8.46143 248.558 17.9807 248.558 29.8268Z" fill="white"/>
</mask>
<g mask="url(#mask43_1_11856)">
<path fill-rule="evenodd" clip-rule="evenodd" d="M257.337 30.7788H252.365C254.058 27.7115 255.75 24.6442 257.337 21.5769H260.721C259.558 24.6442 258.5 27.7115 257.337 30.7788Z" fill="#FF816C"/>
</g>
<mask id="mask44_1_11856" style="mask-type:alpha" maskUnits="userSpaceOnUse" x="248" y="8" width="44" height="44">
<path fill-rule="evenodd" clip-rule="evenodd" d="M248.558 29.8268C248.558 41.5672 258.077 51.1922 269.923 51.1922C281.663 51.1922 291.288 41.673 291.288 29.8268C291.183 17.9807 281.663 8.46143 269.923 8.46143C258.077 8.46143 248.558 17.9807 248.558 29.8268Z" fill="white"/>
</mask>
<g mask="url(#mask44_1_11856)">
<path fill-rule="evenodd" clip-rule="evenodd" d="M277.644 50.7693H253.317C253.529 50.5577 253.74 50.1347 254.163 48.9712H277.221C277.433 50.2404 277.538 50.5577 277.644 50.7693Z" fill="#FF4A67"/>
</g>
<mask id="mask45_1_11856" style="mask-type:alpha" maskUnits="userSpaceOnUse" x="248" y="8" width="44" height="44">
<path fill-rule="evenodd" clip-rule="evenodd" d="M248.558 29.8268C248.558 41.5672 258.077 51.1922 269.923 51.1922C281.663 51.1922 291.288 41.673 291.288 29.8268C291.183 17.9807 281.663 8.46143 269.923 8.46143C258.077 8.46143 248.558 17.9807 248.558 29.8268Z" fill="white"/>
</mask>
<g mask="url(#mask45_1_11856)">
<path fill-rule="evenodd" clip-rule="evenodd" d="M294.99 50.8749H274.788C273.625 45.9038 273.625 40.5095 273.202 35.4326H287.269C288.962 39.0288 290.548 42.5192 292.346 46.1153C293.087 47.7018 293.827 49.4999 294.99 50.8749Z" fill="#FF6D95"/>
</g>
<mask id="mask46_1_11856" style="mask-type:alpha" maskUnits="userSpaceOnUse" x="248" y="8" width="44" height="44">
<path fill-rule="evenodd" clip-rule="evenodd" d="M248.558 29.8268C248.558 41.5672 258.077 51.1922 269.923 51.1922C281.663 51.1922 291.288 41.673 291.288 29.8268C291.183 17.9807 281.663 8.46143 269.923 8.46143C258.077 8.46143 248.558 17.9807 248.558 29.8268Z" fill="white"/>
</mask>
<g mask="url(#mask46_1_11856)">
<path fill-rule="evenodd" clip-rule="evenodd" d="M261.567 50.8749H250.885C251.202 50.8749 251.413 50.2403 252.26 48.2307H262.202C261.779 50.2403 261.673 50.8749 261.567 50.8749Z" fill="#FF88A5"/>
</g>
<mask id="mask47_1_11856" style="mask-type:alpha" maskUnits="userSpaceOnUse" x="248" y="8" width="44" height="44">
<path fill-rule="evenodd" clip-rule="evenodd" d="M248.558 29.8268C248.558 41.5672 258.077 51.1922 269.923 51.1922C281.663 51.1922 291.288 41.673 291.288 29.8268C291.183 17.9807 281.663 8.46143 269.923 8.46143C258.077 8.46143 248.558 17.9807 248.558 29.8268Z" fill="white"/>
</mask>
<g mask="url(#mask47_1_11856)">
<path fill-rule="evenodd" clip-rule="evenodd" d="M263.683 38.077H252.577C255.75 30.5674 258.817 22.952 261.99 15.4424H266.856C265.798 22.952 264.74 30.4616 263.683 38.077Z" fill="#FFE17B"/>
</g>
<mask id="mask48_1_11856" style="mask-type:alpha" maskUnits="userSpaceOnUse" x="248" y="8" width="44" height="44">
<path fill-rule="evenodd" clip-rule="evenodd" d="M248.558 29.8268C248.558 41.5672 258.077 51.1922 269.923 51.1922C281.663 51.1922 291.288 41.673 291.288 29.8268C291.183 17.9807 281.663 8.46143 269.923 8.46143C258.077 8.46143 248.558 17.9807 248.558 29.8268Z" fill="white"/>
</mask>
<g mask="url(#mask48_1_11856)">
<path fill-rule="evenodd" clip-rule="evenodd" d="M266.01 8.88452H264.423C262.837 11.7403 261.25 14.5961 259.663 17.4518H263.154C264 14.4903 264.952 11.6345 266.01 8.88452Z" fill="#008888"/>
</g>
<path d="M229.519 4.75952H228.462V53.9422H229.519V4.75952Z" fill="#8B1232"/>
</svg>
